<?xml version="1.0" encoding="utf-8"?>
<!-- Generator: Adobe Illustrator 27.5.0, SVG Export Plug-In . SVG Version: 6.00 Build 0)  -->
<svg version="1.1" xmlns="http://www.w3.org/2000/svg" xmlns:xlink="http://www.w3.org/1999/xlink" x="0px" y="0px"
	 viewBox="0 0 500 500" style="enable-background:new 0 0 500 500;" xml:space="preserve">
<g id="Background_Complete">
	<g>
		<rect y="382.398" style="fill:#EBEBEB;" width="500" height="0.25"/>
		<rect x="416.779" y="398.494" style="fill:#EBEBEB;" width="33.122" height="0.25"/>
		<rect x="322.527" y="401.208" style="fill:#EBEBEB;" width="8.693" height="0.25"/>
		<rect x="396.586" y="389.208" style="fill:#EBEBEB;" width="19.192" height="0.25"/>
		<rect x="52.459" y="390.888" style="fill:#EBEBEB;" width="43.193" height="0.25"/>
		<rect x="104.556" y="390.888" style="fill:#EBEBEB;" width="6.333" height="0.25"/>
		<rect x="131.471" y="395.111" style="fill:#EBEBEB;" width="93.676" height="0.25"/>
		<path style="fill:#EBEBEB;" d="M237.014,337.8H43.915c-3.147,0-5.708-2.561-5.708-5.708V60.66c0-3.147,2.561-5.708,5.708-5.708
			h193.099c3.146,0,5.707,2.561,5.707,5.708v271.432C242.721,335.239,240.16,337.8,237.014,337.8z M43.915,55.203
			c-3.01,0-5.458,2.448-5.458,5.458v271.432c0,3.01,2.448,5.458,5.458,5.458h193.099c3.009,0,5.457-2.448,5.457-5.458V60.66
			c0-3.009-2.448-5.458-5.457-5.458H43.915z"/>
		<path style="fill:#EBEBEB;" d="M453.31,337.8H260.212c-3.147,0-5.707-2.561-5.707-5.708V60.66c0-3.147,2.561-5.708,5.707-5.708
			H453.31c3.148,0,5.708,2.561,5.708,5.708v271.432C459.019,335.239,456.458,337.8,453.31,337.8z M260.212,55.203
			c-3.009,0-5.457,2.448-5.457,5.458v271.432c0,3.01,2.448,5.458,5.457,5.458H453.31c3.01,0,5.458-2.448,5.458-5.458V60.66
			c0-3.009-2.448-5.458-5.458-5.458H260.212z"/>
	</g>
	<g>
		<g>
			<g>
				<path style="fill:#EBEBEB;" d="M87.464,251.645c-0.145-0.524-0.231-1.125-0.27-1.787c-0.22-3.706-3.758-3.119-6.768-3.622
					c-2.351-0.393,3.875-6.333-0.866-8.249c-0.881-0.356-1.838-0.758-2.288-1.594c-0.595-1.106,0.007-2.562,1.033-3.287
					c1.026-0.725,2.343-0.879,3.599-0.903c0.773-0.94,0.144-2.355-0.604-3.315c-0.748-0.96-1.665-2.052-1.381-3.236
					c0.428-1.788,2.926-1.852,4.731-1.504c0.667-1.08,0.654-2.431,0.978-3.658c0.324-1.228,1.3-2.516,2.56-2.362
					c1.187,0.145,1.912,1.485,3.076,1.759c1.352,0.318,2.522-0.877,3.583-1.774c1.06-0.897,2.915-1.456,3.645-0.275
					c0.437,0.707,0.175,1.693,0.63,2.389c0.788,1.207,2.655,0.458,3.815-0.398c1.16-0.856,3.007-1.631,3.823-0.443
					c0.25,0.364,0.305,0.822,0.449,1.24c0.549,1.583,2.26,2.372,3.593,3.387c1.333,1.015,2.389,3.035,1.261,4.273
					c-0.556,0.611-1.535,0.859-1.812,1.638c-0.345,0.973,0.649,1.846,1.436,2.515c1.31,1.114,1.548,4.448-0.184,5.36
					c-0.727,0.383-1.793,0.5-1.972,1.303c-0.159,0.717,0.568,1.275,1.052,1.828c1.328,1.519,0.766,4.253-1.054,5.125
					c-0.416,0.199-0.927,0.363-1.081,0.797c-0.11,0.311,0.01,0.65,0.099,0.968c0.169,0.602,0.226,1.234,0.167,1.856
					c-0.02,0.213-0.064,0.443-0.226,0.583c-0.147,0.126-0.355,0.146-0.549,0.155c-2.501,0.111-3.708-0.774-5.234,1.403
					c-0.147,0.209-0.3,0.425-0.521,0.553c-0.207,0.12-0.452,0.152-0.69,0.172c-1.719,0.142-2.843-0.931-4.414-1.132
					c-2.18-0.278-2.642,0.846-4.563,1.749C89.496,254.578,88.032,253.703,87.464,251.645z"/>
				<path style="fill:#EBEBEB;" d="M116.269,248.532c-0.145-0.524-0.231-1.125-0.27-1.787c-0.22-3.706-3.758-3.119-6.768-3.621
					c-2.351-0.393,3.875-6.333-0.866-8.249c-0.881-0.356-1.838-0.758-2.288-1.594c-0.595-1.106,0.007-2.562,1.033-3.287
					c1.026-0.725,2.343-0.879,3.599-0.902c0.773-0.94,0.144-2.355-0.604-3.315c-0.748-0.96-1.665-2.052-1.381-3.236
					c0.428-1.788,2.926-1.852,4.731-1.504c0.667-1.08,0.654-2.431,0.978-3.658c0.324-1.228,1.3-2.516,2.56-2.362
					c1.187,0.145,1.912,1.485,3.076,1.759c1.352,0.318,2.522-0.877,3.583-1.774c1.06-0.897,2.915-1.457,3.645-0.275
					c0.437,0.707,0.175,1.693,0.63,2.389c0.788,1.207,2.656,0.458,3.815-0.398c1.16-0.856,3.007-1.631,3.823-0.443
					c0.25,0.364,0.305,0.822,0.45,1.239c0.549,1.583,2.26,2.372,3.593,3.387c1.333,1.015,2.389,3.035,1.261,4.273
					c-0.557,0.611-1.535,0.859-1.812,1.638c-0.346,0.973,0.649,1.846,1.436,2.515c1.31,1.114,1.548,4.448-0.184,5.36
					c-0.727,0.383-1.793,0.5-1.972,1.302c-0.16,0.717,0.568,1.275,1.052,1.828c1.328,1.519,0.766,4.253-1.054,5.125
					c-0.416,0.199-0.927,0.363-1.081,0.797c-0.11,0.311,0.01,0.65,0.099,0.968c0.169,0.601,0.226,1.234,0.167,1.856
					c-0.02,0.213-0.064,0.443-0.226,0.582c-0.147,0.126-0.355,0.146-0.549,0.155c-2.501,0.111-3.708-0.774-5.234,1.402
					c-0.147,0.209-0.3,0.425-0.521,0.553c-0.207,0.12-0.452,0.152-0.69,0.172c-1.719,0.142-2.843-0.932-4.414-1.132
					c-2.18-0.278-2.642,0.846-4.563,1.749C118.301,251.466,116.837,250.59,116.269,248.532z"/>
				<path style="fill:#EBEBEB;" d="M119.045,230.188c-0.144-0.524-0.231-1.125-0.27-1.787c-0.22-3.706-3.758-3.119-6.768-3.622
					c-2.351-0.393,3.875-6.333-0.866-8.249c-0.881-0.356-1.838-0.758-2.288-1.595c-0.595-1.106,0.007-2.562,1.033-3.287
					c1.026-0.725,2.343-0.879,3.599-0.902c0.773-0.94,0.145-2.355-0.604-3.315c-0.749-0.96-1.665-2.053-1.381-3.236
					c0.428-1.788,2.926-1.852,4.731-1.504c0.667-1.08,0.654-2.431,0.977-3.658c0.324-1.227,1.3-2.516,2.56-2.362
					c1.187,0.145,1.912,1.485,3.076,1.759c1.352,0.319,2.522-0.877,3.583-1.774c1.061-0.897,2.915-1.457,3.645-0.275
					c0.437,0.707,0.175,1.693,0.63,2.389c0.788,1.207,2.655,0.458,3.815-0.398c1.16-0.856,3.007-1.631,3.823-0.443
					c0.25,0.364,0.305,0.823,0.449,1.24c0.549,1.583,2.26,2.372,3.593,3.387c1.333,1.015,2.389,3.035,1.261,4.273
					c-0.556,0.611-1.535,0.859-1.812,1.638c-0.346,0.973,0.649,1.846,1.436,2.515c1.31,1.114,1.548,4.448-0.184,5.36
					c-0.727,0.383-1.794,0.5-1.972,1.302c-0.16,0.717,0.568,1.275,1.052,1.828c1.328,1.519,0.766,4.253-1.054,5.125
					c-0.416,0.199-0.927,0.363-1.081,0.797c-0.11,0.311,0.01,0.65,0.099,0.968c0.169,0.601,0.226,1.234,0.167,1.856
					c-0.02,0.213-0.064,0.443-0.226,0.582c-0.147,0.126-0.355,0.146-0.549,0.155c-2.501,0.111-3.708-0.774-5.234,1.402
					c-0.147,0.209-0.3,0.425-0.521,0.553c-0.207,0.12-0.452,0.152-0.69,0.172c-1.719,0.142-2.843-0.932-4.414-1.132
					c-2.18-0.278-2.642,0.846-4.562,1.749C121.077,233.121,119.613,232.246,119.045,230.188z"/>
				<path style="fill:#EBEBEB;" d="M138.02,239.325c-0.144-0.524-0.231-1.125-0.27-1.787c-0.22-3.706-3.758-3.119-6.768-3.621
					c-2.351-0.393,3.875-6.333-0.866-8.249c-0.881-0.356-1.838-0.758-2.288-1.595c-0.595-1.106,0.007-2.562,1.033-3.287
					c1.025-0.725,2.344-0.879,3.599-0.902c0.773-0.94,0.145-2.355-0.604-3.315c-0.748-0.96-1.665-2.053-1.381-3.236
					c0.428-1.788,2.926-1.852,4.731-1.504c0.667-1.08,0.654-2.431,0.978-3.658c0.324-1.227,1.3-2.516,2.56-2.362
					c1.187,0.145,1.912,1.485,3.076,1.759c1.352,0.319,2.522-0.877,3.583-1.774c1.061-0.897,2.915-1.456,3.645-0.275
					c0.437,0.707,0.175,1.693,0.63,2.389c0.788,1.207,2.655,0.458,3.815-0.398c1.16-0.856,3.007-1.631,3.823-0.443
					c0.25,0.364,0.305,0.823,0.449,1.24c0.549,1.583,2.26,2.372,3.593,3.387c1.333,1.015,2.389,3.035,1.261,4.273
					c-0.557,0.611-1.535,0.859-1.812,1.638c-0.346,0.973,0.649,1.846,1.436,2.515c1.31,1.114,1.548,4.449-0.184,5.36
					c-0.727,0.383-1.794,0.5-1.972,1.302c-0.16,0.717,0.568,1.275,1.052,1.828c1.328,1.519,0.766,4.253-1.054,5.125
					c-0.416,0.199-0.927,0.363-1.081,0.797c-0.11,0.311,0.01,0.65,0.099,0.968c0.169,0.601,0.226,1.234,0.167,1.856
					c-0.02,0.213-0.064,0.443-0.226,0.583c-0.147,0.126-0.355,0.146-0.549,0.154c-2.501,0.111-3.708-0.774-5.234,1.403
					c-0.147,0.209-0.3,0.425-0.521,0.553c-0.207,0.12-0.452,0.152-0.69,0.172c-1.719,0.142-2.843-0.931-4.414-1.132
					c-2.18-0.278-2.642,0.846-4.563,1.749C140.052,242.258,138.587,241.383,138.02,239.325z"/>
				<path style="fill:#EBEBEB;" d="M157.197,235.105c-0.144-0.524-0.231-1.125-0.27-1.786c-0.22-3.706-3.758-3.119-6.768-3.622
					c-2.351-0.393,3.875-6.333-0.866-8.249c-0.881-0.356-1.838-0.758-2.288-1.595c-0.595-1.106,0.007-2.562,1.033-3.287
					c1.025-0.725,2.344-0.879,3.599-0.902c0.773-0.94,0.144-2.355-0.604-3.315c-0.748-0.96-1.665-2.053-1.381-3.236
					c0.428-1.788,2.926-1.852,4.731-1.504c0.667-1.08,0.654-2.431,0.978-3.658c0.324-1.227,1.3-2.516,2.56-2.362
					c1.187,0.145,1.912,1.485,3.076,1.759c1.352,0.319,2.522-0.877,3.583-1.774c1.06-0.897,2.915-1.456,3.645-0.275
					c0.437,0.707,0.175,1.693,0.63,2.389c0.788,1.207,2.655,0.458,3.815-0.398c1.16-0.856,3.007-1.631,3.823-0.443
					c0.25,0.364,0.305,0.822,0.45,1.24c0.548,1.583,2.26,2.372,3.593,3.387c1.333,1.015,2.389,3.035,1.261,4.273
					c-0.557,0.611-1.535,0.859-1.812,1.638c-0.346,0.973,0.649,1.846,1.436,2.515c1.31,1.114,1.547,4.448-0.184,5.36
					c-0.727,0.383-1.794,0.5-1.972,1.302c-0.16,0.717,0.568,1.275,1.052,1.828c1.328,1.519,0.766,4.253-1.054,5.125
					c-0.416,0.199-0.927,0.363-1.081,0.797c-0.11,0.311,0.01,0.65,0.099,0.968c0.169,0.601,0.226,1.234,0.167,1.856
					c-0.02,0.213-0.064,0.443-0.226,0.582c-0.147,0.126-0.355,0.146-0.549,0.155c-2.501,0.111-3.708-0.774-5.234,1.403
					c-0.147,0.209-0.3,0.425-0.521,0.553c-0.207,0.12-0.452,0.152-0.69,0.172c-1.719,0.142-2.843-0.931-4.414-1.132
					c-2.18-0.278-2.642,0.846-4.562,1.749C159.229,238.038,157.765,237.163,157.197,235.105z"/>
				<path style="fill:#EBEBEB;" d="M157.448,255.619c-0.114-0.413-0.182-0.886-0.213-1.407c-0.173-2.918-2.959-2.456-5.329-2.852
					c-1.851-0.309,3.051-4.986-0.682-6.495c-0.693-0.28-1.447-0.597-1.801-1.256c-0.469-0.871,0.006-2.017,0.813-2.588
					c0.808-0.571,1.845-0.692,2.834-0.711c0.609-0.74,0.114-1.854-0.476-2.61c-0.589-0.756-1.311-1.616-1.088-2.548
					c0.337-1.407,2.304-1.458,3.725-1.184c0.525-0.85,0.515-1.914,0.77-2.88c0.255-0.967,1.023-1.981,2.016-1.86
					c0.935,0.114,1.506,1.169,2.422,1.385c1.064,0.251,1.986-0.691,2.821-1.397c0.835-0.706,2.295-1.147,2.87-0.216
					c0.344,0.557,0.138,1.333,0.496,1.881c0.62,0.95,2.091,0.361,3.004-0.313c0.913-0.674,2.368-1.284,3.01-0.349
					c0.197,0.286,0.24,0.648,0.354,0.976c0.432,1.247,1.78,1.867,2.829,2.667c1.049,0.799,1.881,2.389,0.993,3.365
					c-0.438,0.481-1.209,0.676-1.426,1.29c-0.272,0.766,0.511,1.453,1.131,1.98c1.031,0.877,1.218,3.503-0.145,4.221
					c-0.572,0.301-1.412,0.394-1.553,1.025c-0.126,0.565,0.447,1.004,0.828,1.44c1.046,1.196,0.603,3.349-0.83,4.035
					c-0.328,0.157-0.73,0.285-0.851,0.628c-0.087,0.245,0.008,0.512,0.078,0.762c0.133,0.474,0.178,0.972,0.131,1.462
					c-0.016,0.167-0.05,0.349-0.178,0.459c-0.116,0.1-0.28,0.115-0.432,0.122c-1.969,0.088-2.92-0.609-4.122,1.104
					c-0.115,0.165-0.236,0.334-0.41,0.436c-0.163,0.095-0.356,0.12-0.544,0.135c-1.354,0.112-2.239-0.733-3.476-0.891
					c-1.717-0.219-2.08,0.666-3.592,1.377C159.048,257.928,157.895,257.239,157.448,255.619z"/>
				<path style="fill:#EBEBEB;" d="M168.193,248.532c-0.145-0.524-0.231-1.125-0.27-1.787c-0.22-3.706-3.758-3.119-6.768-3.621
					c-2.351-0.393,3.875-6.333-0.866-8.249c-0.881-0.356-1.838-0.758-2.288-1.594c-0.595-1.106,0.007-2.562,1.033-3.287
					c1.026-0.725,2.344-0.879,3.599-0.902c0.773-0.94,0.144-2.355-0.604-3.315c-0.748-0.96-1.665-2.052-1.381-3.236
					c0.428-1.788,2.926-1.852,4.731-1.504c0.667-1.08,0.654-2.431,0.978-3.658c0.324-1.228,1.3-2.516,2.56-2.362
					c1.187,0.145,1.913,1.485,3.076,1.759c1.352,0.318,2.522-0.877,3.583-1.774c1.06-0.897,2.915-1.457,3.645-0.275
					c0.437,0.707,0.175,1.693,0.63,2.389c0.788,1.207,2.655,0.458,3.815-0.398c1.16-0.856,3.007-1.631,3.823-0.443
					c0.25,0.364,0.305,0.822,0.449,1.239c0.549,1.583,2.26,2.372,3.593,3.387c1.333,1.015,2.389,3.035,1.261,4.273
					c-0.557,0.611-1.535,0.859-1.812,1.638c-0.345,0.973,0.649,1.846,1.436,2.515c1.31,1.114,1.548,4.448-0.184,5.36
					c-0.727,0.383-1.793,0.5-1.972,1.302c-0.16,0.717,0.568,1.275,1.052,1.828c1.328,1.519,0.766,4.253-1.054,5.125
					c-0.416,0.199-0.927,0.363-1.081,0.797c-0.11,0.311,0.01,0.65,0.099,0.968c0.169,0.601,0.226,1.234,0.167,1.856
					c-0.02,0.213-0.064,0.443-0.226,0.582c-0.147,0.126-0.355,0.146-0.549,0.155c-2.501,0.111-3.708-0.774-5.234,1.402
					c-0.147,0.209-0.3,0.425-0.521,0.553c-0.207,0.12-0.452,0.152-0.69,0.172c-1.719,0.142-2.843-0.932-4.414-1.132
					c-2.18-0.278-2.642,0.846-4.563,1.749C170.225,251.466,168.761,250.59,168.193,248.532z"/>
				<path style="fill:#EBEBEB;" d="M138.02,216.76c-0.144-0.524-0.231-1.125-0.27-1.787c-0.22-3.706-3.758-3.119-6.768-3.621
					c-2.351-0.393,3.875-6.333-0.866-8.249c-0.881-0.356-1.838-0.758-2.288-1.594c-0.595-1.106,0.007-2.562,1.033-3.287
					c1.025-0.725,2.344-0.879,3.599-0.902c0.773-0.94,0.145-2.355-0.604-3.315c-0.748-0.96-1.665-2.053-1.381-3.236
					c0.428-1.788,2.926-1.852,4.731-1.504c0.667-1.08,0.654-2.431,0.978-3.658c0.324-1.227,1.3-2.516,2.56-2.362
					c1.187,0.145,1.912,1.485,3.076,1.759c1.352,0.319,2.522-0.877,3.583-1.774c1.061-0.897,2.915-1.456,3.645-0.275
					c0.437,0.707,0.175,1.693,0.63,2.389c0.788,1.207,2.655,0.458,3.815-0.398c1.16-0.856,3.007-1.631,3.823-0.443
					c0.25,0.364,0.305,0.822,0.449,1.24c0.549,1.583,2.26,2.372,3.593,3.387c1.333,1.015,2.389,3.034,1.261,4.273
					c-0.557,0.611-1.535,0.859-1.812,1.638c-0.346,0.973,0.649,1.846,1.436,2.515c1.31,1.114,1.548,4.448-0.184,5.36
					c-0.727,0.383-1.794,0.5-1.972,1.302c-0.16,0.717,0.568,1.275,1.052,1.828c1.328,1.519,0.766,4.253-1.054,5.125
					c-0.416,0.199-0.927,0.363-1.081,0.797c-0.11,0.311,0.01,0.65,0.099,0.968c0.169,0.601,0.226,1.234,0.167,1.856
					c-0.02,0.213-0.064,0.443-0.226,0.582c-0.147,0.126-0.355,0.146-0.549,0.155c-2.501,0.111-3.708-0.774-5.234,1.403
					c-0.147,0.209-0.3,0.425-0.521,0.553c-0.207,0.12-0.452,0.152-0.69,0.172c-1.719,0.142-2.843-0.932-4.414-1.132
					c-2.18-0.278-2.642,0.846-4.563,1.749C140.052,219.694,138.587,218.819,138.02,216.76z"/>
				<path style="fill:#EBEBEB;" d="M113.384,218.02c-0.145-0.524-0.231-1.125-0.27-1.787c-0.22-3.706-3.758-3.119-6.768-3.621
					c-2.351-0.393,3.875-6.333-0.866-8.249c-0.881-0.356-1.838-0.758-2.288-1.595c-0.595-1.106,0.007-2.562,1.033-3.287
					c1.026-0.725,2.343-0.879,3.599-0.903c0.773-0.94,0.145-2.355-0.604-3.315c-0.748-0.96-1.665-2.052-1.381-3.236
					c0.428-1.787,2.926-1.852,4.731-1.504c0.667-1.08,0.654-2.431,0.978-3.658c0.324-1.227,1.3-2.516,2.56-2.362
					c1.187,0.145,1.912,1.485,3.076,1.759c1.352,0.319,2.522-0.877,3.583-1.774c1.06-0.897,2.915-1.456,3.645-0.275
					c0.437,0.707,0.175,1.693,0.63,2.389c0.788,1.207,2.655,0.458,3.815-0.398c1.16-0.856,3.007-1.631,3.823-0.443
					c0.25,0.364,0.305,0.822,0.449,1.24c0.549,1.583,2.26,2.372,3.593,3.387c1.333,1.015,2.389,3.034,1.261,4.273
					c-0.557,0.611-1.535,0.859-1.812,1.638c-0.346,0.973,0.649,1.846,1.436,2.515c1.31,1.114,1.548,4.448-0.184,5.36
					c-0.727,0.383-1.793,0.5-1.972,1.302c-0.16,0.717,0.568,1.275,1.052,1.828c1.328,1.519,0.766,4.253-1.054,5.125
					c-0.416,0.199-0.927,0.363-1.081,0.797c-0.11,0.311,0.01,0.65,0.099,0.968c0.169,0.601,0.226,1.234,0.167,1.856
					c-0.02,0.213-0.064,0.443-0.226,0.583c-0.147,0.126-0.355,0.146-0.549,0.155c-2.501,0.112-3.708-0.774-5.234,1.403
					c-0.147,0.209-0.3,0.424-0.521,0.553c-0.207,0.12-0.452,0.152-0.69,0.172c-1.719,0.142-2.843-0.931-4.414-1.132
					c-2.18-0.278-2.642,0.846-4.563,1.749C115.416,220.954,113.951,220.078,113.384,218.02z"/>
				<path style="fill:#EBEBEB;" d="M98.42,228.102c-0.145-0.524-0.231-1.125-0.27-1.787c-0.22-3.706-3.758-3.119-6.768-3.621
					c-2.351-0.393,3.875-6.333-0.866-8.249c-0.881-0.356-1.838-0.758-2.288-1.594c-0.595-1.106,0.007-2.562,1.033-3.287
					c1.025-0.725,2.343-0.879,3.599-0.903c0.773-0.94,0.145-2.355-0.604-3.315c-0.748-0.96-1.665-2.053-1.381-3.236
					c0.428-1.788,2.926-1.852,4.731-1.504c0.667-1.08,0.654-2.431,0.977-3.658c0.324-1.228,1.3-2.516,2.56-2.362
					c1.187,0.145,1.912,1.485,3.076,1.759c1.352,0.319,2.522-0.877,3.583-1.774c1.06-0.897,2.915-1.457,3.645-0.275
					c0.437,0.707,0.175,1.693,0.63,2.389c0.788,1.207,2.655,0.458,3.815-0.398c1.16-0.856,3.007-1.631,3.823-0.443
					c0.25,0.364,0.305,0.822,0.449,1.24c0.549,1.583,2.26,2.372,3.593,3.387c1.333,1.015,2.389,3.035,1.261,4.273
					c-0.557,0.611-1.535,0.859-1.812,1.638c-0.346,0.973,0.649,1.846,1.436,2.515c1.31,1.114,1.548,4.449-0.184,5.36
					c-0.727,0.383-1.793,0.5-1.972,1.302c-0.16,0.717,0.568,1.275,1.052,1.828c1.328,1.519,0.766,4.253-1.054,5.125
					c-0.416,0.199-0.927,0.363-1.081,0.797c-0.11,0.311,0.01,0.65,0.099,0.968c0.169,0.601,0.226,1.234,0.167,1.856
					c-0.02,0.213-0.064,0.443-0.226,0.583c-0.147,0.126-0.355,0.146-0.549,0.155c-2.501,0.111-3.708-0.774-5.234,1.402
					c-0.147,0.209-0.3,0.425-0.521,0.553c-0.207,0.12-0.452,0.152-0.69,0.172c-1.719,0.142-2.843-0.931-4.414-1.132
					c-2.18-0.278-2.642,0.846-4.563,1.749C100.451,231.036,98.987,230.161,98.42,228.102z"/>
				<path style="fill:#E6E6E6;" d="M102.956,240.845c0,0,6.258,8.848,8.416,11.653c2.158,2.805,12.948,20.285,14.416,31.847
					c0.157,1.234,0.311,2.296,0.462,3.225c-4.641,30.634-3.913,86.681-3.749,96.276h14.703c0.135-10.82,1.385-109.727,1.846-112.747
					c0.487-3.195,6.634-15.364,16.129-20.363c9.495-5,17.7-21.544,17.7-21.544h-3.026c0,0-5.611,10.143-13.595,15.753
					c-1.16,0.815-2.36,1.493-3.592,2.13c0.286-9.14-3.175-17.883-3.175-17.883l-1.633,1.511c2.206,9.033,1.916,14.819,1.248,18.143
					c-2.68,1.343-5.46,2.897-8.256,5.525c-8.282-10.77-12.94-35.401-12.94-35.401l-2.121,1.158c0,0,0.689,6.69,2.738,15.106
					c1.552,6.375,6.119,18.378,8.243,23.827c-2.112,2.933-4.209,6.725-6.256,11.744c-0.232-0.357-0.494-0.682-0.799-0.958
					c-5.395-4.878-15.538-27.924-15.538-27.924c-2.453-5.358,1.295-19.422,1.295-19.422h-2.831l-1.269,12.301l-7.122-7.769
					l-1.295,1.079l7.553,9.711l3.884,12.303l-10.143-11.225L102.956,240.845z"/>
			</g>
			<path style="fill:#E0E0E0;" d="M77.877,383.846h97.738c1.375-4.586-2.18-10.087-6.053-10.862
				c-4.758-0.952-9.54-9.324-9.766-14.654c-0.225-5.33-8.79-21.723-22.112-11.6c-13.322,10.124-9.273,1.491-18.91-1.353
				c-9.637-2.844-15.716,5.339-11.487,11.477c0,0-9.681-2.426-13.669,6.614c-3.988,9.04,0,14.655,0,14.655
				S81.38,377.766,77.877,383.846z"/>
		</g>
		<path style="fill:#F5F5F5;" d="M288.271,102.609c0-2.539,2.058-4.596,4.596-4.596c0.459,0,0.902,0.069,1.32,0.195
			c-0.067-0.461-0.103-0.932-0.103-1.411c0-5.376,4.358-9.734,9.734-9.734c0.613,0,1.212,0.059,1.793,0.168
			c1.496-2.448,4.185-4.088,7.265-4.088c4.661,0,8.441,3.745,8.51,8.389c0.048-0.001,0.094-0.007,0.142-0.007
			c4.331,0,7.841,3.51,7.841,7.841c0,4.33-3.51,7.841-7.841,7.841h-28.795l0.006-0.007
			C290.26,107.13,288.271,105.104,288.271,102.609z"/>
		<path style="fill:#F5F5F5;" d="M143.684,158.48c0-2.539,2.058-4.596,4.596-4.596c0.459,0,0.902,0.069,1.32,0.195
			c-0.067-0.461-0.103-0.932-0.103-1.411c0-5.376,4.358-9.734,9.734-9.734c0.613,0,1.212,0.059,1.793,0.168
			c1.496-2.448,4.186-4.088,7.265-4.088c4.661,0,8.441,3.745,8.51,8.389c0.048-0.001,0.094-0.007,0.142-0.007
			c4.33,0,7.841,3.51,7.841,7.841c0,4.33-3.51,7.841-7.841,7.841h-28.795l0.006-0.007
			C145.673,163.001,143.684,160.975,143.684,158.48z"/>
		<path style="fill:#F5F5F5;" d="M250.743,164.207c0-1.578,1.279-2.858,2.858-2.858c0.285,0,0.561,0.043,0.821,0.121
			c-0.042-0.286-0.064-0.579-0.064-0.877c0-3.342,2.709-6.051,6.051-6.051c0.381,0,0.753,0.037,1.115,0.104
			c0.93-1.522,2.602-2.542,4.516-2.542c2.898,0,5.248,2.328,5.291,5.215c0.03,0,0.058-0.004,0.088-0.004
			c2.692,0,4.875,2.183,4.875,4.875s-2.183,4.875-4.875,4.875h-17.902l0.004-0.004C251.979,167.018,250.743,165.758,250.743,164.207
			z"/>
		<path style="fill:#F5F5F5;" d="M103.357,123.428c0-1.578,1.279-2.858,2.858-2.858c0.285,0,0.561,0.043,0.821,0.121
			c-0.042-0.286-0.064-0.579-0.064-0.877c0-3.342,2.71-6.051,6.051-6.051c0.381,0,0.753,0.037,1.115,0.104
			c0.93-1.522,2.602-2.542,4.516-2.542c2.898,0,5.248,2.328,5.291,5.215c0.03-0.001,0.058-0.005,0.088-0.005
			c2.692,0,4.875,2.183,4.875,4.875s-2.183,4.875-4.875,4.875h-17.902l0.004-0.004C104.594,126.239,103.357,124.979,103.357,123.428
			z"/>
		<path style="fill:#F5F5F5;" d="M377.187,168.15c0-1.578,1.279-2.858,2.858-2.858c0.285,0,0.56,0.043,0.82,0.121
			c-0.042-0.287-0.064-0.579-0.064-0.877c0-3.342,2.709-6.052,6.051-6.052c0.381,0,0.753,0.037,1.115,0.104
			c0.93-1.522,2.602-2.542,4.516-2.542c2.898,0,5.248,2.328,5.291,5.215c0.03-0.001,0.058-0.005,0.088-0.005
			c2.692,0,4.875,2.183,4.875,4.875c0,2.692-2.182,4.875-4.875,4.875h-17.902l0.004-0.004
			C378.424,170.961,377.187,169.701,377.187,168.15z"/>
		<g>
			<path style="fill:#E0E0E0;" d="M408.188,386.848c0.226-2.718-0.145-6.241-3.318-7.288c-5.378-1.774-8.569-5.939-8.389-10.65
				c0.18-4.711-5.481-9.295-9.727-4.88c-4.246,4.415-3.68-3.395-9.341-5.293c-5.661-1.898-10.46,2.707-8.91,6.915
				c1.55,4.208-4.036,6.837-10.726,3.258c-6.689-3.579-14.049,2.932-12.634,8.027c1.415,5.095,0.257,5.661-3.976,3.963
				c-3.42-1.372-9.017,1.507-9.641,5.948H408.188z"/>
			<g>
				<path style="fill:#EBEBEB;" d="M406.193,285.414c0.111-0.402,0.177-0.863,0.207-1.371c0.169-2.843,2.883-2.393,5.193-2.779
					c1.804-0.301-2.973-4.859,0.665-6.329c0.676-0.273,1.41-0.582,1.755-1.223c0.457-0.849-0.005-1.966-0.792-2.522
					c-0.787-0.556-1.798-0.674-2.762-0.692c-0.593-0.721-0.111-1.807,0.464-2.544c0.574-0.737,1.277-1.575,1.06-2.483
					c-0.329-1.372-2.245-1.421-3.63-1.154c-0.512-0.829-0.502-1.865-0.75-2.807c-0.248-0.942-0.997-1.93-1.964-1.813
					c-0.911,0.111-1.467,1.139-2.36,1.35c-1.037,0.244-1.935-0.673-2.749-1.361c-0.814-0.688-2.237-1.117-2.797-0.211
					c-0.335,0.543-0.135,1.299-0.483,1.833c-0.604,0.926-2.037,0.351-2.927-0.305s-2.307-1.251-2.933-0.34
					c-0.192,0.279-0.234,0.631-0.345,0.951c-0.421,1.215-1.734,1.82-2.757,2.599c-1.023,0.779-1.833,2.328-0.967,3.279
					c0.427,0.469,1.178,0.659,1.39,1.257c0.265,0.747-0.498,1.416-1.102,1.93c-1.005,0.855-1.187,3.413,0.141,4.112
					c0.558,0.294,1.376,0.384,1.513,0.999c0.122,0.55-0.436,0.978-0.807,1.403c-1.019,1.165-0.588,3.263,0.808,3.932
					c0.319,0.153,0.711,0.278,0.829,0.612c0.085,0.239-0.008,0.499-0.076,0.743c-0.13,0.462-0.173,0.947-0.128,1.424
					c0.016,0.163,0.049,0.34,0.173,0.447c0.113,0.097,0.273,0.112,0.421,0.119c1.919,0.086,2.845-0.594,4.016,1.076
					c0.113,0.16,0.23,0.326,0.4,0.424c0.159,0.092,0.347,0.117,0.53,0.132c1.319,0.109,2.181-0.715,3.387-0.868
					c1.673-0.213,2.027,0.649,3.501,1.342C404.634,287.665,405.758,286.993,406.193,285.414z"/>
				<path style="fill:#EBEBEB;" d="M384.092,283.026c0.111-0.402,0.177-0.863,0.207-1.371c0.169-2.843,2.883-2.393,5.193-2.779
					c1.804-0.301-2.973-4.859,0.665-6.329c0.676-0.273,1.41-0.582,1.755-1.223c0.457-0.849-0.005-1.966-0.792-2.522
					c-0.787-0.557-1.798-0.674-2.762-0.693c-0.593-0.721-0.111-1.807,0.463-2.544c0.574-0.737,1.277-1.575,1.06-2.483
					c-0.329-1.372-2.245-1.421-3.63-1.154c-0.512-0.829-0.502-1.865-0.75-2.807c-0.248-0.942-0.997-1.93-1.964-1.812
					c-0.911,0.111-1.467,1.139-2.36,1.35c-1.037,0.244-1.935-0.673-2.749-1.361c-0.814-0.688-2.237-1.118-2.797-0.211
					c-0.336,0.543-0.135,1.299-0.483,1.833c-0.604,0.926-2.037,0.351-2.927-0.305c-0.89-0.656-2.307-1.251-2.933-0.34
					c-0.192,0.279-0.234,0.631-0.345,0.951c-0.421,1.215-1.734,1.82-2.757,2.599c-1.023,0.779-1.833,2.328-0.967,3.279
					c0.427,0.469,1.178,0.659,1.39,1.257c0.265,0.747-0.498,1.416-1.102,1.93c-1.005,0.855-1.187,3.413,0.142,4.113
					c0.558,0.294,1.376,0.384,1.513,0.999c0.122,0.55-0.436,0.978-0.807,1.403c-1.019,1.165-0.588,3.263,0.808,3.932
					c0.319,0.153,0.711,0.278,0.829,0.612c0.085,0.239-0.008,0.499-0.076,0.743c-0.129,0.461-0.173,0.947-0.128,1.424
					c0.015,0.163,0.049,0.34,0.173,0.447c0.113,0.097,0.273,0.112,0.421,0.119c1.919,0.086,2.845-0.594,4.016,1.076
					c0.112,0.16,0.23,0.326,0.4,0.424c0.159,0.092,0.347,0.117,0.53,0.132c1.319,0.109,2.181-0.715,3.387-0.868
					c1.673-0.213,2.027,0.649,3.501,1.342C382.533,285.277,383.657,284.605,384.092,283.026z"/>
				<path style="fill:#EBEBEB;" d="M381.962,268.951c0.111-0.402,0.177-0.863,0.207-1.371c0.169-2.843,2.883-2.393,5.193-2.779
					c1.804-0.302-2.973-4.859,0.665-6.329c0.676-0.273,1.41-0.582,1.755-1.223c0.457-0.849-0.005-1.966-0.792-2.522
					c-0.787-0.556-1.798-0.674-2.762-0.692c-0.593-0.721-0.111-1.807,0.463-2.544c0.574-0.737,1.277-1.575,1.06-2.483
					c-0.329-1.372-2.245-1.421-3.63-1.154c-0.512-0.829-0.502-1.865-0.75-2.807c-0.248-0.942-0.997-1.93-1.964-1.812
					c-0.911,0.111-1.467,1.139-2.36,1.35c-1.037,0.244-1.935-0.673-2.749-1.361c-0.814-0.688-2.237-1.118-2.797-0.211
					c-0.336,0.543-0.135,1.299-0.483,1.833c-0.604,0.926-2.037,0.351-2.927-0.305c-0.89-0.657-2.307-1.251-2.933-0.34
					c-0.192,0.279-0.234,0.631-0.345,0.951c-0.421,1.215-1.734,1.82-2.757,2.598c-1.023,0.779-1.833,2.328-0.967,3.279
					c0.427,0.469,1.178,0.659,1.39,1.257c0.265,0.747-0.498,1.416-1.102,1.93c-1.005,0.855-1.187,3.413,0.142,4.113
					c0.558,0.294,1.376,0.384,1.513,0.999c0.122,0.55-0.436,0.978-0.807,1.403c-1.019,1.165-0.588,3.263,0.809,3.932
					c0.319,0.153,0.711,0.278,0.829,0.612c0.085,0.239-0.008,0.499-0.076,0.743c-0.13,0.461-0.173,0.947-0.128,1.424
					c0.016,0.163,0.049,0.34,0.173,0.447c0.113,0.097,0.272,0.112,0.421,0.119c1.919,0.085,2.845-0.594,4.016,1.076
					c0.113,0.16,0.23,0.326,0.4,0.424c0.159,0.092,0.347,0.117,0.53,0.132c1.319,0.109,2.182-0.715,3.387-0.868
					c1.673-0.213,2.027,0.649,3.501,1.342C380.403,271.202,381.527,270.53,381.962,268.951z"/>
				<path style="fill:#EBEBEB;" d="M367.403,275.962c0.111-0.402,0.177-0.863,0.207-1.371c0.169-2.843,2.883-2.393,5.193-2.779
					c1.804-0.301-2.973-4.859,0.665-6.329c0.676-0.273,1.41-0.582,1.755-1.224c0.457-0.849-0.005-1.966-0.792-2.522
					c-0.787-0.556-1.798-0.674-2.762-0.692c-0.593-0.721-0.111-1.807,0.463-2.544c0.574-0.737,1.277-1.575,1.06-2.483
					c-0.328-1.371-2.245-1.421-3.63-1.154c-0.512-0.829-0.502-1.865-0.75-2.807c-0.248-0.942-0.997-1.93-1.964-1.813
					c-0.911,0.111-1.467,1.139-2.36,1.35c-1.037,0.244-1.935-0.673-2.749-1.361c-0.814-0.688-2.237-1.118-2.797-0.211
					c-0.336,0.543-0.135,1.299-0.483,1.833c-0.604,0.926-2.037,0.351-2.927-0.305c-0.89-0.657-2.307-1.251-2.933-0.34
					c-0.192,0.279-0.234,0.631-0.345,0.951c-0.421,1.215-1.734,1.82-2.757,2.599c-1.022,0.779-1.833,2.328-0.967,3.279
					c0.427,0.469,1.178,0.659,1.39,1.257c0.265,0.747-0.498,1.416-1.102,1.93c-1.005,0.855-1.187,3.413,0.142,4.113
					c0.558,0.294,1.376,0.384,1.513,0.999c0.122,0.55-0.436,0.978-0.807,1.403c-1.019,1.165-0.588,3.263,0.808,3.932
					c0.319,0.153,0.711,0.278,0.829,0.612c0.085,0.239-0.008,0.499-0.076,0.743c-0.13,0.461-0.173,0.947-0.128,1.424
					c0.015,0.163,0.049,0.34,0.173,0.447c0.113,0.097,0.273,0.112,0.421,0.118c1.919,0.086,2.845-0.594,4.016,1.076
					c0.112,0.16,0.23,0.326,0.4,0.424c0.159,0.092,0.347,0.117,0.53,0.132c1.319,0.109,2.181-0.715,3.387-0.868
					c1.673-0.213,2.027,0.649,3.501,1.342C365.844,278.212,366.968,277.541,367.403,275.962z"/>
				<path style="fill:#EBEBEB;" d="M352.689,272.724c0.111-0.402,0.177-0.863,0.207-1.371c0.169-2.843,2.883-2.393,5.193-2.779
					c1.804-0.301-2.973-4.859,0.665-6.329c0.676-0.273,1.41-0.582,1.755-1.223c0.457-0.849-0.005-1.966-0.792-2.522
					c-0.787-0.557-1.798-0.674-2.762-0.693c-0.593-0.721-0.111-1.807,0.463-2.544c0.574-0.737,1.277-1.575,1.06-2.483
					c-0.329-1.372-2.245-1.421-3.63-1.154c-0.512-0.829-0.502-1.865-0.75-2.807c-0.248-0.942-0.997-1.93-1.964-1.813
					c-0.911,0.111-1.467,1.139-2.36,1.35c-1.037,0.245-1.935-0.673-2.749-1.361s-2.237-1.117-2.797-0.211
					c-0.336,0.543-0.135,1.299-0.483,1.833c-0.604,0.926-2.038,0.351-2.927-0.305c-0.89-0.657-2.307-1.251-2.933-0.34
					c-0.192,0.279-0.234,0.631-0.345,0.951c-0.421,1.215-1.734,1.82-2.757,2.599c-1.023,0.779-1.833,2.328-0.967,3.279
					c0.427,0.469,1.178,0.659,1.39,1.257c0.265,0.747-0.498,1.416-1.102,1.93c-1.005,0.855-1.187,3.413,0.141,4.113
					c0.558,0.294,1.376,0.384,1.513,0.999c0.122,0.55-0.436,0.978-0.807,1.403c-1.019,1.165-0.588,3.263,0.808,3.932
					c0.319,0.153,0.711,0.278,0.829,0.612c0.085,0.239-0.008,0.499-0.076,0.743c-0.13,0.461-0.173,0.947-0.128,1.424
					c0.016,0.163,0.049,0.34,0.173,0.447c0.113,0.097,0.273,0.112,0.421,0.119c1.919,0.085,2.845-0.594,4.016,1.076
					c0.113,0.161,0.23,0.326,0.4,0.424c0.159,0.092,0.347,0.117,0.53,0.132c1.319,0.109,2.182-0.715,3.387-0.868
					c1.673-0.213,2.027,0.649,3.501,1.342C351.13,274.974,352.254,274.303,352.689,272.724z"/>
				<path style="fill:#EBEBEB;" d="M352.497,288.463c0.087-0.317,0.139-0.68,0.163-1.079c0.133-2.239,2.27-1.884,4.089-2.188
					c1.421-0.237-2.341-3.826,0.523-4.984c0.532-0.215,1.11-0.458,1.382-0.963c0.36-0.668-0.004-1.548-0.624-1.986
					s-1.416-0.531-2.175-0.545c-0.467-0.568-0.087-1.423,0.365-2.003c0.452-0.58,1.006-1.24,0.835-1.955
					c-0.259-1.08-1.768-1.119-2.858-0.909c-0.403-0.653-0.395-1.469-0.591-2.21c-0.195-0.742-0.785-1.52-1.547-1.427
					c-0.717,0.087-1.155,0.897-1.859,1.063c-0.817,0.192-1.524-0.53-2.164-1.072c-0.641-0.542-1.761-0.88-2.202-0.166
					c-0.264,0.427-0.106,1.023-0.38,1.444c-0.476,0.729-1.604,0.277-2.305-0.24c-0.701-0.517-1.817-0.985-2.31-0.268
					c-0.151,0.22-0.184,0.497-0.272,0.749c-0.331,0.956-1.365,1.433-2.171,2.046c-0.805,0.613-1.443,1.833-0.762,2.582
					c0.336,0.369,0.927,0.519,1.094,0.989c0.209,0.588-0.392,1.115-0.868,1.519c-0.792,0.673-0.935,2.688,0.111,3.238
					c0.439,0.231,1.083,0.302,1.191,0.787c0.096,0.433-0.343,0.771-0.635,1.105c-0.802,0.918-0.463,2.569,0.637,3.096
					c0.251,0.121,0.56,0.219,0.653,0.482c0.066,0.188-0.006,0.393-0.06,0.585c-0.102,0.363-0.136,0.746-0.101,1.121
					c0.012,0.128,0.038,0.268,0.136,0.352c0.089,0.076,0.215,0.088,0.332,0.093c1.511,0.068,2.24-0.467,3.162,0.848
					c0.089,0.126,0.182,0.257,0.315,0.334c0.125,0.073,0.273,0.092,0.417,0.104c1.039,0.086,1.718-0.563,2.667-0.684
					c1.317-0.168,1.596,0.511,2.756,1.057C351.27,290.235,352.154,289.707,352.497,288.463z"/>
				<path style="fill:#EBEBEB;" d="M344.252,283.026c0.111-0.402,0.177-0.863,0.207-1.371c0.169-2.843,2.883-2.393,5.193-2.779
					c1.804-0.301-2.973-4.859,0.665-6.329c0.676-0.273,1.41-0.582,1.755-1.223c0.457-0.849-0.005-1.966-0.792-2.522
					c-0.787-0.557-1.798-0.674-2.762-0.693c-0.593-0.721-0.111-1.807,0.464-2.544c0.574-0.737,1.277-1.575,1.06-2.483
					c-0.329-1.372-2.245-1.421-3.63-1.154c-0.512-0.829-0.502-1.865-0.75-2.807c-0.248-0.942-0.997-1.93-1.964-1.812
					c-0.911,0.111-1.467,1.139-2.36,1.35c-1.037,0.244-1.935-0.673-2.749-1.361c-0.814-0.688-2.237-1.118-2.797-0.211
					c-0.336,0.543-0.135,1.299-0.483,1.833c-0.604,0.926-2.037,0.351-2.927-0.305c-0.89-0.656-2.307-1.251-2.933-0.34
					c-0.192,0.279-0.234,0.631-0.345,0.951c-0.421,1.215-1.734,1.82-2.757,2.599c-1.023,0.779-1.833,2.328-0.967,3.279
					c0.427,0.469,1.178,0.659,1.39,1.257c0.265,0.747-0.498,1.416-1.102,1.93c-1.005,0.855-1.187,3.413,0.141,4.113
					c0.558,0.294,1.376,0.384,1.513,0.999c0.122,0.55-0.436,0.978-0.807,1.403c-1.019,1.165-0.588,3.263,0.808,3.932
					c0.319,0.153,0.711,0.278,0.829,0.612c0.085,0.239-0.008,0.499-0.076,0.743c-0.13,0.461-0.173,0.947-0.128,1.424
					c0.016,0.163,0.049,0.34,0.173,0.447c0.113,0.097,0.273,0.112,0.421,0.119c1.919,0.086,2.845-0.594,4.016,1.076
					c0.113,0.16,0.23,0.326,0.4,0.424c0.158,0.092,0.347,0.117,0.529,0.132c1.319,0.109,2.182-0.715,3.387-0.868
					c1.673-0.213,2.027,0.649,3.501,1.342C342.693,285.277,343.817,284.605,344.252,283.026z"/>
				<path style="fill:#EBEBEB;" d="M367.403,258.649c0.111-0.402,0.177-0.863,0.207-1.371c0.169-2.843,2.883-2.393,5.193-2.779
					c1.804-0.301-2.973-4.859,0.665-6.329c0.676-0.273,1.41-0.582,1.755-1.223c0.457-0.849-0.005-1.966-0.792-2.522
					c-0.787-0.556-1.798-0.674-2.762-0.692c-0.593-0.721-0.111-1.807,0.463-2.544c0.574-0.737,1.277-1.575,1.06-2.483
					c-0.328-1.372-2.245-1.421-3.63-1.154c-0.512-0.829-0.502-1.865-0.75-2.807c-0.248-0.942-0.997-1.93-1.964-1.812
					c-0.911,0.111-1.467,1.139-2.36,1.35c-1.037,0.244-1.935-0.673-2.749-1.361c-0.814-0.688-2.237-1.118-2.797-0.211
					c-0.336,0.543-0.135,1.299-0.483,1.833c-0.604,0.926-2.037,0.351-2.927-0.305c-0.89-0.657-2.307-1.251-2.933-0.34
					c-0.192,0.279-0.234,0.631-0.345,0.951c-0.421,1.215-1.734,1.82-2.757,2.599c-1.022,0.779-1.833,2.328-0.967,3.279
					c0.427,0.469,1.178,0.659,1.39,1.257c0.265,0.747-0.498,1.416-1.102,1.93c-1.005,0.855-1.187,3.413,0.142,4.113
					c0.558,0.294,1.376,0.384,1.513,0.999c0.122,0.55-0.436,0.978-0.807,1.403c-1.019,1.165-0.588,3.263,0.808,3.932
					c0.319,0.153,0.711,0.278,0.829,0.612c0.085,0.239-0.008,0.499-0.076,0.743c-0.13,0.461-0.173,0.947-0.128,1.424
					c0.015,0.163,0.049,0.34,0.173,0.447c0.113,0.097,0.273,0.112,0.421,0.118c1.919,0.086,2.845-0.594,4.016,1.076
					c0.112,0.16,0.23,0.326,0.4,0.424c0.159,0.092,0.347,0.117,0.53,0.132c1.319,0.109,2.181-0.715,3.387-0.868
					c1.673-0.213,2.027,0.649,3.501,1.342C365.844,260.899,366.968,260.228,367.403,258.649z"/>
				<path style="fill:#EBEBEB;" d="M386.306,259.615c0.111-0.402,0.177-0.863,0.207-1.371c0.169-2.843,2.883-2.393,5.193-2.779
					c1.804-0.302-2.973-4.859,0.665-6.329c0.676-0.273,1.41-0.582,1.755-1.224c0.457-0.849-0.005-1.966-0.792-2.522
					c-0.787-0.557-1.798-0.674-2.762-0.693c-0.594-0.721-0.111-1.807,0.463-2.544c0.574-0.737,1.277-1.575,1.06-2.483
					c-0.329-1.372-2.245-1.421-3.63-1.154c-0.512-0.829-0.502-1.865-0.75-2.807c-0.248-0.942-0.997-1.93-1.964-1.813
					c-0.911,0.111-1.467,1.139-2.36,1.35c-1.037,0.245-1.935-0.673-2.749-1.361c-0.814-0.688-2.237-1.118-2.797-0.211
					c-0.336,0.543-0.134,1.299-0.483,1.833c-0.604,0.926-2.037,0.351-2.927-0.305c-0.89-0.657-2.307-1.251-2.933-0.34
					c-0.192,0.279-0.234,0.631-0.345,0.951c-0.421,1.215-1.734,1.82-2.757,2.599c-1.022,0.779-1.833,2.328-0.967,3.279
					c0.427,0.469,1.178,0.659,1.39,1.257c0.265,0.747-0.498,1.416-1.102,1.93c-1.005,0.855-1.187,3.413,0.142,4.113
					c0.558,0.294,1.376,0.384,1.513,0.999c0.122,0.55-0.436,0.978-0.807,1.403c-1.019,1.165-0.588,3.263,0.808,3.932
					c0.319,0.153,0.711,0.278,0.829,0.612c0.085,0.239-0.008,0.499-0.076,0.743c-0.129,0.461-0.173,0.947-0.128,1.424
					c0.015,0.163,0.049,0.34,0.173,0.447c0.113,0.097,0.273,0.112,0.421,0.119c1.919,0.086,2.845-0.594,4.016,1.076
					c0.113,0.16,0.23,0.326,0.4,0.424c0.159,0.092,0.347,0.117,0.529,0.132c1.319,0.109,2.182-0.715,3.387-0.868
					c1.673-0.213,2.027,0.649,3.501,1.342C384.747,261.866,385.871,261.194,386.306,259.615z"/>
				<path style="fill:#EBEBEB;" d="M397.788,267.351c0.111-0.402,0.177-0.863,0.207-1.371c0.169-2.844,2.883-2.393,5.193-2.779
					c1.804-0.301-2.973-4.859,0.665-6.329c0.676-0.273,1.41-0.582,1.755-1.223c0.457-0.849-0.005-1.966-0.792-2.522
					c-0.787-0.557-1.798-0.674-2.762-0.692c-0.593-0.721-0.111-1.807,0.463-2.544c0.574-0.737,1.277-1.575,1.06-2.483
					c-0.329-1.372-2.245-1.421-3.63-1.154c-0.512-0.829-0.502-1.865-0.75-2.807c-0.248-0.942-0.997-1.93-1.964-1.812
					c-0.911,0.111-1.467,1.139-2.36,1.35c-1.037,0.244-1.935-0.673-2.749-1.361c-0.814-0.688-2.237-1.118-2.797-0.211
					c-0.336,0.543-0.135,1.299-0.483,1.833c-0.604,0.926-2.037,0.351-2.927-0.305c-0.89-0.657-2.307-1.251-2.933-0.34
					c-0.192,0.279-0.234,0.631-0.345,0.951c-0.421,1.215-1.734,1.82-2.757,2.599c-1.023,0.779-1.833,2.328-0.967,3.279
					c0.427,0.469,1.178,0.659,1.39,1.257c0.265,0.747-0.498,1.416-1.102,1.93c-1.005,0.855-1.187,3.413,0.142,4.113
					c0.558,0.294,1.376,0.384,1.513,0.999c0.122,0.55-0.436,0.978-0.807,1.403c-1.019,1.165-0.588,3.263,0.809,3.932
					c0.319,0.153,0.711,0.278,0.829,0.612c0.085,0.239-0.008,0.499-0.076,0.743c-0.13,0.461-0.173,0.947-0.128,1.424
					c0.015,0.163,0.049,0.34,0.173,0.447c0.113,0.097,0.273,0.112,0.421,0.118c1.919,0.086,2.845-0.594,4.016,1.076
					c0.112,0.161,0.23,0.326,0.4,0.424c0.159,0.092,0.347,0.117,0.53,0.132c1.319,0.109,2.181-0.715,3.387-0.868
					c1.673-0.213,2.027,0.649,3.501,1.342C396.228,269.602,397.352,268.93,397.788,267.351z"/>
				<path style="fill:#E6E6E6;" d="M394.306,277.128c0,0-4.802,6.789-6.457,8.941c-1.656,2.152-9.935,15.564-11.061,24.435
					c-0.12,0.947-0.239,1.762-0.354,2.474c3.561,23.504,3.002,66.507,2.877,73.87h-11.281c-0.104-8.302-1.063-84.19-1.416-86.507
					c-0.374-2.451-5.09-11.788-12.376-15.624c-7.285-3.836-13.581-16.53-13.581-16.53h2.322c0,0,4.305,7.782,10.431,12.087
					c0.89,0.625,1.811,1.145,2.756,1.634c-0.22-7.013,2.436-13.721,2.436-13.721l1.253,1.159c-1.692,6.931-1.47,11.37-0.957,13.92
					c2.056,1.03,4.189,2.223,6.335,4.239c6.355-8.263,9.928-27.162,9.928-27.162l1.627,0.889c0,0-0.529,5.133-2.101,11.59
					c-1.191,4.891-4.695,14.1-6.325,18.282c1.62,2.25,3.23,5.16,4.8,9.011c0.178-0.274,0.379-0.523,0.613-0.735
					c4.139-3.742,11.922-21.425,11.922-21.425c1.882-4.111-0.994-14.902-0.994-14.902h2.172l0.974,9.438l5.464-5.961l0.993,0.828
					l-5.795,7.451l-2.98,9.44l7.782-8.612L394.306,277.128z"/>
			</g>
		</g>
		<g>
			<rect x="78.568" y="333.983" style="fill:#E0E0E0;" width="340.526" height="11.544"/>
			<polygon style="fill:#E6E6E6;" points="87.755,381.454 71.719,381.454 71.719,310.231 79.737,304.53 87.755,310.231 			"/>
			<polygon style="fill:#E6E6E6;" points="116.132,381.454 100.096,381.454 100.096,310.231 108.114,304.53 116.132,310.231 			"/>
			<polygon style="fill:#E6E6E6;" points="144.51,381.454 128.473,381.454 128.473,310.231 136.491,304.53 144.51,310.231 			"/>
			<polygon style="fill:#E6E6E6;" points="172.887,381.454 156.85,381.454 156.85,310.231 164.868,304.53 172.887,310.231 			"/>
			<polygon style="fill:#E6E6E6;" points="201.264,381.454 185.227,381.454 185.227,310.231 193.246,304.53 201.264,310.231 			"/>
			<polygon style="fill:#E6E6E6;" points="229.641,381.454 213.605,381.454 213.605,310.231 221.623,304.53 229.641,310.231 			"/>
			<polygon style="fill:#E6E6E6;" points="258.018,381.454 241.982,381.454 241.982,310.231 250,304.53 258.018,310.231 			"/>
			<polygon style="fill:#E6E6E6;" points="286.395,381.454 270.359,381.454 270.359,310.231 278.377,304.53 286.395,310.231 			"/>
			<polygon style="fill:#E6E6E6;" points="314.773,381.454 298.736,381.454 298.736,310.231 306.754,304.53 314.773,310.231 			"/>
			<polygon style="fill:#E6E6E6;" points="343.15,381.454 327.113,381.454 327.113,310.231 335.131,304.53 343.15,310.231 			"/>
			<polygon style="fill:#E6E6E6;" points="371.527,381.454 355.49,381.454 355.49,310.231 363.509,304.53 371.527,310.231 			"/>
			<polygon style="fill:#E6E6E6;" points="399.904,381.454 383.867,381.454 383.867,310.231 391.886,304.53 399.904,310.231 			"/>
			<polygon style="fill:#E6E6E6;" points="428.281,381.454 412.245,381.454 412.245,310.231 420.263,304.53 428.281,310.231 			"/>
		</g>
	</g>
</g>
<g id="Background_Simple" style="display:none;">
	<g style="display:inline;">
		<path style="fill:#296198;" d="M88.546,113.633c27.919-59.449,127.059-51.062,165.317-9.255
			c38.258,41.806,50.696,68.599,85.208,52.983c34.512-15.616,78.518-11.44,81.043,38.164s-37.913,108.263-102.09,125.615
			c-64.177,17.352-64.161,78.759-149.1,66.368c-46.31-6.756-47.365-56.86-40.825-98.301S56.167,182.576,88.546,113.633z"/>
		<path style="opacity:0.9;fill:#FFFFFF;" d="M88.546,113.633c27.919-59.449,127.059-51.062,165.317-9.255
			c38.258,41.806,50.696,68.599,85.208,52.983c34.512-15.616,78.518-11.44,81.043,38.164s-37.913,108.263-102.09,125.615
			c-64.177,17.352-64.161,78.759-149.1,66.368c-46.31-6.756-47.365-56.86-40.825-98.301S56.167,182.576,88.546,113.633z"/>
	</g>
</g>
<g id="Shadow_1_">
	<ellipse id="_x3C_Path_x3E__359_" style="fill:#F5F5F5;" cx="250" cy="416.238" rx="193.889" ry="11.323"/>
</g>
<g id="Floor">
	<g>
		<path style="fill:#296198;" d="M424.069,383.244c0,0,9.041-7.956,6.333-9.301c-2.708-1.345-6.002,6.01-6.333,4.904
			c-0.331-1.106,1.767-11.212-3.25-10.511c-5.018,0.701,0,10.511,0,10.511s-3.718-4.023-5.018-3.393
			c-1.3,0.63,3.955,7.789,3.955,7.789H424.069z"/>
		<path style="opacity:0.5;fill:#FFFFFF;" d="M424.069,383.244c0,0,9.041-7.956,6.333-9.301c-2.708-1.345-6.002,6.01-6.333,4.904
			c-0.331-1.106,1.767-11.212-3.25-10.511c-5.018,0.701,0,10.511,0,10.511s-3.718-4.023-5.018-3.393
			c-1.3,0.63,3.955,7.789,3.955,7.789H424.069z"/>
		<path style="fill:#296198;" d="M219.305,383.244c0,0-9.041-7.956-6.333-9.301c2.708-1.345,6.002,6.01,6.333,4.904
			c0.331-1.106-1.767-11.212,3.25-10.511c5.018,0.701,0,10.511,0,10.511s3.718-4.023,5.018-3.393c1.3,0.63-3.955,7.789-3.955,7.789
			H219.305z"/>
		<path style="fill:#296198;" d="M317.464,384.482c0,0,2.44-8.174-2.496-9.802c-4.936-1.628-7.864-5.45-7.699-9.774
			s-5.03-8.531-8.927-4.479c-3.897,4.052-3.377-3.116-8.572-4.857c-5.195-1.742-9.599,2.484-8.177,6.346
			c1.423,3.862-3.704,6.274-9.843,2.99c-6.139-3.284-12.893,2.69-11.594,7.366c1.299,4.676,0.235,5.195-3.649,3.637
			c-3.884-1.559-10.832,2.857-8.397,8.572C250.545,390.197,317.464,384.482,317.464,384.482z"/>
		<path style="fill:#296198;" d="M190.132,385.346c4.382-2.972,0.438-8.024-3.944-8.619c-4.382-0.594-8.787-5.824-8.995-9.153
			c-0.208-3.329-8.096-13.569-20.366-7.246c-12.27,6.324-8.541,0.931-17.417-0.845c-8.876-1.776-14.476,3.335-10.58,7.169
			c0,0-8.917-1.516-12.59,4.131c-3.673,5.647,0,9.154,0,9.154s-16.77-0.336-15.261,6.697
			C102.487,393.667,190.132,385.346,190.132,385.346z"/>
		<path style="fill:#296198;" d="M363.676,381.852c0,0-7.951-15.517-5.952-17.037c1.999-1.52,5.948,12.964,5.952,11.837
			c0.004-1.126-0.222-20.856,3.451-20.074c3.673,0.782,0,18.948,0,18.948s4.943-9.282,6.879-8.581
			c1.937,0.701-5.712,11.74-5.712,11.74s4.566-2.762,5.712-2.548c1.146,0.213-5.712,5.716-5.712,5.716H363.676z"/>
		<path style="fill:#296198;" d="M75.469,383.743c0,0,7.951-15.517,5.952-17.037c-1.999-1.52-5.948,12.964-5.952,11.837
			c-0.004-1.126,0.222-20.856-3.451-20.074c-3.673,0.782,0,18.948,0,18.948s-4.943-9.282-6.879-8.581
			c-1.937,0.701,5.712,11.74,5.712,11.74s-4.566-2.762-5.712-2.548c-1.146,0.213,5.712,5.716,5.712,5.716H75.469z"/>
		<path style="opacity:0.5;fill:#FFFFFF;" d="M219.305,383.244c0,0-9.041-7.956-6.333-9.301c2.708-1.345,6.002,6.01,6.333,4.904
			c0.331-1.106-1.767-11.212,3.25-10.511c5.018,0.701,0,10.511,0,10.511s3.718-4.023,5.018-3.393c1.3,0.63-3.955,7.789-3.955,7.789
			H219.305z"/>
		<path style="opacity:0.5;fill:#FFFFFF;" d="M317.464,384.482c0,0,2.44-8.174-2.496-9.802c-4.936-1.628-7.864-5.45-7.699-9.774
			s-5.03-8.531-8.927-4.479c-3.897,4.052-3.377-3.116-8.572-4.857c-5.195-1.742-9.599,2.484-8.177,6.346
			c1.423,3.862-3.704,6.274-9.843,2.99c-6.139-3.284-12.893,2.69-11.594,7.366c1.299,4.676,0.235,5.195-3.649,3.637
			c-3.884-1.559-10.832,2.857-8.397,8.572C250.545,390.197,317.464,384.482,317.464,384.482z"/>
		<path style="opacity:0.5;fill:#FFFFFF;" d="M190.132,385.346c4.382-2.972,0.438-8.024-3.944-8.619
			c-4.382-0.594-8.787-5.824-8.995-9.153c-0.208-3.329-8.096-13.569-20.366-7.246c-12.27,6.324-8.541,0.931-17.417-0.845
			c-8.876-1.776-14.476,3.335-10.58,7.169c0,0-8.917-1.516-12.59,4.131c-3.673,5.647,0,9.154,0,9.154s-16.77-0.336-15.261,6.697
			C102.487,393.667,190.132,385.346,190.132,385.346z"/>
		<path style="opacity:0.5;fill:#FFFFFF;" d="M363.676,381.852c0,0-7.951-15.517-5.952-17.037c1.999-1.52,5.948,12.964,5.952,11.837
			c0.004-1.126-0.222-20.856,3.451-20.074c3.673,0.782,0,18.948,0,18.948s4.943-9.282,6.879-8.581
			c1.937,0.701-5.712,11.74-5.712,11.74s4.566-2.762,5.712-2.548c1.146,0.213-5.712,5.716-5.712,5.716H363.676z"/>
		<path style="opacity:0.5;fill:#FFFFFF;" d="M75.469,383.743c0,0,7.951-15.517,5.952-17.037c-1.999-1.52-5.948,12.964-5.952,11.837
			c-0.004-1.126,0.222-20.856-3.451-20.074c-3.673,0.782,0,18.948,0,18.948s-4.943-9.282-6.879-8.581
			c-1.937,0.701,5.712,11.74,5.712,11.74s-4.566-2.762-5.712-2.548c-1.146,0.213,5.712,5.716,5.712,5.716H75.469z"/>
		<g>
			<path style="fill:#263238;" d="M433.103,380.614H62.318c-1.045,0-1.892,0.847-1.892,1.892v17.117h374.57v-17.117
				C434.995,381.461,434.148,380.614,433.103,380.614z"/>
			<path style="opacity:0.8;fill:#FFFFFF;" d="M433.103,380.614H62.318c-1.045,0-1.892,0.847-1.892,1.892v17.117h374.57v-17.117
				C434.995,381.461,434.148,380.614,433.103,380.614z"/>
			<g>
				<rect x="408.621" y="384.418" style="opacity:0.2;fill:#FFFFFF;" width="24.528" height="12.879"/>
				<rect x="382.779" y="383.195" style="opacity:0.2;fill:#FFFFFF;" width="24.527" height="12.878"/>
				<rect x="365.764" y="387.883" style="opacity:0.2;fill:#FFFFFF;" width="15.966" height="8.19"/>
				<rect x="66.459" y="388.941" style="opacity:0.2;fill:#FFFFFF;" width="15.966" height="8.19"/>
				<rect x="347.698" y="383.788" style="opacity:0.2;fill:#FFFFFF;" width="16.785" height="11.213"/>
				<rect x="335.039" y="382.276" style="opacity:0.2;fill:#FFFFFF;" width="11.423" height="11.213"/>
				<rect x="84.277" y="384.418" style="opacity:0.2;fill:#FFFFFF;" width="11.423" height="11.213"/>
				<rect x="286.913" y="384.418" style="opacity:0.2;fill:#FFFFFF;" width="11.423" height="11.213"/>
				<rect x="298.907" y="382.276" style="opacity:0.2;fill:#FFFFFF;" width="11.423" height="7.748"/>
				<rect x="315.065" y="385.251" style="opacity:0.2;fill:#FFFFFF;" width="18.806" height="11.213"/>
				<rect x="266.807" y="383.788" style="opacity:0.2;fill:#FFFFFF;" width="18.806" height="11.213"/>
				<rect x="368.512" y="383.195" style="opacity:0.2;fill:#FFFFFF;" width="12.107" height="3.606"/>
				<rect x="66.459" y="383.448" style="opacity:0.2;fill:#FFFFFF;" width="12.107" height="3.606"/>
				<rect x="300.748" y="391.686" style="opacity:0.2;fill:#FFFFFF;" width="12.107" height="3.606"/>
				<rect x="240.622" y="384.418" style="opacity:0.2;fill:#FFFFFF;" width="24.528" height="12.879"/>
				<rect x="214.779" y="383.195" style="opacity:0.2;fill:#FFFFFF;" width="24.527" height="12.878"/>
				<rect x="197.764" y="387.883" style="opacity:0.2;fill:#FFFFFF;" width="15.966" height="8.19"/>
				<rect x="179.699" y="383.788" style="opacity:0.2;fill:#FFFFFF;" width="16.785" height="11.213"/>
				<rect x="167.039" y="382.276" style="opacity:0.2;fill:#FFFFFF;" width="11.423" height="11.213"/>
				<rect x="118.913" y="384.418" style="opacity:0.2;fill:#FFFFFF;" width="11.423" height="11.213"/>
				<rect x="130.907" y="382.276" style="opacity:0.2;fill:#FFFFFF;" width="11.423" height="7.748"/>
				<rect x="147.065" y="385.251" style="opacity:0.2;fill:#FFFFFF;" width="18.806" height="11.213"/>
				<rect x="98.807" y="383.788" style="opacity:0.2;fill:#FFFFFF;" width="18.806" height="11.213"/>
				<rect x="200.512" y="383.195" style="opacity:0.2;fill:#FFFFFF;" width="12.107" height="3.606"/>
				<rect x="132.748" y="391.686" style="opacity:0.2;fill:#FFFFFF;" width="12.107" height="3.606"/>
			</g>
		</g>
	</g>
</g>
<g id="Plant_2">
	<g>
		<g>
			<path style="fill:#296198;" d="M392.216,370.234c0,0-7.753-9.228-12.715-4.924c-4.962,4.304-2.452,13.433,3.271,13.727
				c5.723,0.294,9.445-2.885,9.445-2.885V370.234z"/>
			<path style="opacity:0.2;fill:#FFFFFF;enable-background:new    ;" d="M392.216,370.234c0,0-7.753-9.228-12.715-4.924
				c-4.962,4.304-2.452,13.433,3.271,13.727c5.723,0.294,9.445-2.885,9.445-2.885V370.234z"/>
			<path style="fill:#296198;" d="M423.849,346.831c0,0,6.513-6.822,10.544-5.665c4.032,1.157,3.612,17.455-8.893,10.856
				L423.849,346.831z"/>
			<path style="opacity:0.3;fill:#FFFFFF;enable-background:new    ;" d="M423.849,346.831c0,0,6.513-6.822,10.544-5.665
				c4.032,1.157,3.612,17.455-8.893,10.856L423.849,346.831z"/>
			<path style="fill:#296198;" d="M400.589,397.724c0,0-21.398-29.274-4.032-35.205c17.367-5.931,20.468,23.553,15.506,31.76
				C407.102,402.487,400.589,397.724,400.589,397.724z"/>
			<path style="fill:#296198;" d="M410.513,337.79c0,0,13.274-30.821-6.388-31.751c-19.662-0.93-21.804,30.56,0.821,35.128
				L410.513,337.79z"/>
			<path style="opacity:0.3;fill:#FFFFFF;enable-background:new    ;" d="M400.589,397.724c0,0-21.398-29.274-4.032-35.205
				c17.367-5.931,20.468,23.553,15.506,31.76C407.102,402.487,400.589,397.724,400.589,397.724z"/>
			<path style="opacity:0.3;fill:#FFFFFF;enable-background:new    ;" d="M410.513,337.79c0,0,13.274-30.821-6.388-31.751
				c-19.662-0.93-21.804,30.56,0.821,35.128L410.513,337.79z"/>
			<path style="fill:#296198;" d="M405.803,363.024c0,0-6.455-27.213,5.95-29.384c12.405-2.171,24.65,22.417-1.01,34.778
				C410.743,368.417,406.342,365.687,405.803,363.024z"/>
			<path style="opacity:0.2;fill:#FFFFFF;enable-background:new    ;" d="M405.803,363.024c0,0-6.455-27.213,5.95-29.384
				c12.405-2.171,24.65,22.417-1.01,34.778C410.743,368.417,406.342,365.687,405.803,363.024z"/>
		</g>
		<g>
			<polygon style="fill:#263238;" points="385.186,393.573 421.113,393.573 418.113,416.559 388.186,416.559 			"/>
		</g>
		<path style="fill:#296198;" d="M403.872,335.587c-7.405-5.41-12.529-15.864-8.167-24.673c-0.173,0.82-0.394,1.711-0.593,2.524
			C393.652,321.795,398.224,329.757,403.872,335.587L403.872,335.587z"/>
		<path style="fill:#296198;" d="M399.162,309.138c8.529,1.727,12.295,10.779,11.311,18.756c-0.195,1.121-0.356,2.239-0.58,3.341
			c0.049-2.245,0.147-4.472-0.076-6.698C409.284,317.966,405.667,311.55,399.162,309.138L399.162,309.138z"/>
		<path style="fill:#296198;" d="M414.199,335.587c4.787,1.696,7.786,6.954,7.801,11.936c0.034,4.336-2.402,8.279-5.08,11.512
			c-1.967,2.353-4.194,4.471-6.648,6.274c2.171-2.107,4.238-4.331,6.045-6.752c2.229-2.992,4.191-6.252,4.68-9.944
			C421.417,343.472,418.908,337.99,414.199,335.587L414.199,335.587z"/>
		<path style="fill:#296198;" d="M410.513,337.79c1.279,3.981,2.416,8.746,0.332,12.668c-1.736,2.54-1.916,5.863-1.954,8.896
			c-0.026,1.052,0.02,2.105,0.071,3.166c-0.514-2.063-0.741-4.196-0.691-6.346c0.024-2.148,0.51-4.459,1.727-6.247
			C411.914,346.268,411,341.735,410.513,337.79L410.513,337.79z"/>
		<path style="fill:#296198;" d="M401.784,365.31c4.966,2.575,7.024,19.827,6.819,25.265c-0.158-1.104-0.326-2.198-0.534-3.29
			c-0.952-5.44-1.938-10.896-3.376-16.226C404.015,369.063,403.585,366.601,401.784,365.31L401.784,365.31z"/>
		<path style="fill:#296198;" d="M395.705,366.255c-2.394,7.944-0.651,16.688,4.885,22.912c-0.76-0.706-1.578-1.381-2.251-2.173
			C393.367,381.468,392.397,372.865,395.705,366.255L395.705,366.255z"/>
		<path style="fill:#296198;" d="M428.899,350.155c2.277-0.614,4.214-1.169,5.881-2.842
			C434.368,349.86,431.133,351.06,428.899,350.155L428.899,350.155z"/>
		<path style="fill:#296198;" d="M427.57,345.657c1.071-2.181,4.724-3.538,6.28-1.163
			C431.662,343.54,429.532,344.734,427.57,345.657L427.57,345.657z"/>
		<path style="fill:#296198;" d="M388.674,371.612c-2.497-1.763-5.083-4.76-8.32-3.194
			C382.985,365.304,387.41,368.788,388.674,371.612L388.674,371.612z"/>
		<path style="fill:#296198;" d="M388.674,376.152c-3.263,1.198-9.793,1.292-10.197-3.281
			C380.348,376.6,385.12,375.78,388.674,376.152L388.674,376.152z"/>
	</g>
</g>
<g id="Plant_1">
	<g>
		<path style="fill:#263238;" d="M95.257,390.968c0,0-1.388-10.175-7.895-11.288c-6.506-1.113-4.545-6.033-6.239-7.937
			c-1.695-1.904-6.122,3.714-2.33,9.156c3.793,5.443,0.692,3.732,2.33,8.793C82.76,394.753,95.852,399.401,95.257,390.968z"/>
		<path style="opacity:0.2;fill:#FFFFFF;enable-background:new    ;" d="M95.257,390.968c0,0-1.388-10.175-7.895-11.288
			c-6.506-1.113-4.545-6.033-6.239-7.937c-1.695-1.904-6.122,3.714-2.33,9.156c3.793,5.443,0.692,3.732,2.33,8.793
			C82.76,394.753,95.852,399.401,95.257,390.968z"/>
		<path style="fill:#263238;" d="M94.986,398.025c-0.168,0-0.329-0.094-0.407-0.256c-0.05-0.104-5.017-10.686-2.408-27.545
			c0.859-5.553,2.523-10.09,3.992-14.093c3.147-8.581,5.634-15.359-0.052-27.741c-1.8-3.92-3.638-7.571-5.416-11.103
			c-6.675-13.257-11.948-23.728-8.026-34.333c0.087-0.234,0.347-0.355,0.58-0.267c0.233,0.086,0.353,0.346,0.267,0.579
			c-3.786,10.237,1.408,20.554,7.985,33.615c1.782,3.538,3.624,7.197,5.431,11.131c5.841,12.72,3.171,20,0.079,28.43
			c-1.525,4.156-3.102,8.455-3.947,13.92c-2.563,16.561,2.281,26.913,2.33,27.016c0.108,0.225,0.013,0.494-0.211,0.602
			C95.118,398.011,95.052,398.025,94.986,398.025z"/>
		<path style="fill:#263238;" d="M91.23,395.54c0,0-4.206-6.338,1.864-9.596c6.07-3.258,7.286-0.635,11.042-2.978
			c3.756-2.343,6.601-8.021,7.242-4.388c0.64,3.632-3.698,5.705-2.163,7.366C110.749,387.606,99.006,398.397,91.23,395.54z"/>
		<g>
			<path style="fill:#263238;" d="M81.309,288.405c0,0-4.098-12.454,5.22-12.715C95.849,275.429,85.577,287.077,81.309,288.405z"/>
			<path style="fill:#263238;" d="M89.403,297.979c0,0,2.777-11.324,9.392-8.936C105.409,291.432,95.996,298.188,89.403,297.979z"/>
			<path style="fill:#263238;" d="M78.182,298.96c0,0,0.997-9.037-6.022-9.216C65.142,289.565,68.266,297.501,78.182,298.96z"/>
			<path style="fill:#263238;" d="M82.852,317.395c0,0-9.42-8.397-12.807-2.148C66.657,321.496,77.15,322.798,82.852,317.395z"/>
			<path style="fill:#263238;" d="M99.517,315.905c0,0,1.771-13.947,9.38-9.572C116.507,310.707,106.146,317.299,99.517,315.905z"/>
			<path style="fill:#263238;" d="M106.212,335.873c0,0-5.616-14.092,4.82-12.504C121.469,324.956,113.58,332.453,106.212,335.873z"
				/>
			<path style="fill:#263238;" d="M90.197,340.901c0,0-8.816-10.385-15.552-7.092C67.908,337.103,73.414,347.427,90.197,340.901z"/>
			<path style="fill:#263238;" d="M98.197,363.91c0,0,7.51-16.676,14.188-11.056C119.062,358.474,108.125,366.876,98.197,363.91z"/>
			<path style="fill:#263238;" d="M87.283,362.934c0,0,1.984-12.936-5.451-11.896C74.398,352.078,76.35,359.992,87.283,362.934z"/>
			<g style="opacity:0.2;enable-background:new    ;">
				<path style="fill:#FFFFFF;" d="M81.309,288.405c0,0-4.098-12.454,5.22-12.715C95.849,275.429,85.577,287.077,81.309,288.405z"/>
				<path style="fill:#FFFFFF;" d="M89.403,297.979c0,0,2.777-11.324,9.392-8.936C105.409,291.432,95.996,298.188,89.403,297.979z"
					/>
				<path style="fill:#FFFFFF;" d="M78.182,298.96c0,0,0.997-9.037-6.022-9.216C65.142,289.565,68.266,297.501,78.182,298.96z"/>
				<path style="fill:#FFFFFF;" d="M82.852,317.395c0,0-9.42-8.397-12.807-2.148C66.657,321.496,77.15,322.798,82.852,317.395z"/>
				<path style="fill:#FFFFFF;" d="M99.517,315.905c0,0,1.771-13.947,9.38-9.572C116.507,310.707,106.146,317.299,99.517,315.905z"
					/>
				<path style="fill:#FFFFFF;" d="M106.212,335.873c0,0-5.616-14.092,4.82-12.504C121.469,324.956,113.58,332.453,106.212,335.873z
					"/>
				<path style="fill:#FFFFFF;" d="M90.197,340.901c0,0-8.816-10.385-15.552-7.092C67.908,337.103,73.414,347.427,90.197,340.901z"
					/>
				<path style="fill:#FFFFFF;" d="M98.197,363.91c0,0,7.51-16.676,14.188-11.056C119.062,358.474,108.125,366.876,98.197,363.91z"
					/>
				<path style="fill:#FFFFFF;" d="M87.283,362.934c0,0,1.984-12.936-5.451-11.896C74.398,352.078,76.35,359.992,87.283,362.934z"/>
			</g>
		</g>
		<path style="fill:#263238;" d="M85.34,305.477c-0.077,0-0.152-0.02-0.22-0.058c-5.516-3.088-9.482-8.923-9.648-9.17
			c-0.139-0.207-0.084-0.487,0.122-0.626c0.207-0.141,0.487-0.085,0.627,0.122c0.038,0.058,3.818,5.614,8.94,8.656
			c0.842-1.56,3.874-6.942,6.405-8.46c0.213-0.129,0.49-0.06,0.619,0.154s0.059,0.491-0.155,0.619
			c-2.689,1.613-6.253,8.449-6.289,8.519c-0.056,0.108-0.154,0.19-0.271,0.225C85.427,305.471,85.384,305.477,85.34,305.477z"/>
		<path style="fill:#263238;" d="M93.882,322.782c-0.098,0-0.193-0.031-0.272-0.091c-7.842-5.928-17.872-5.677-17.977-5.681
			c-0.224,0.002-0.457-0.188-0.465-0.437c-0.008-0.249,0.187-0.458,0.436-0.466c0.103,0.003,10.11-0.256,18.15,5.567
			c1.049-1.675,5.082-7.742,10.257-10.789c0.215-0.125,0.491-0.056,0.618,0.16c0.126,0.214,0.055,0.491-0.16,0.617
			c-5.708,3.36-10.155,10.821-10.199,10.896c-0.065,0.11-0.175,0.189-0.301,0.213C93.941,322.779,93.912,322.782,93.882,322.782z"/>
		<path style="fill:#263238;" d="M99.322,345.649c-0.078,0-0.156-0.021-0.226-0.061c-0.115-0.066-11.579-6.657-19.867-6.82
			c-0.249-0.005-0.447-0.211-0.442-0.46s0.203-0.492,0.46-0.442c7.899,0.155,18.187,5.749,20.028,6.786
			c5.319-4.487,9.546-15.501,9.588-15.613c0.088-0.233,0.349-0.349,0.582-0.262c0.233,0.089,0.35,0.35,0.262,0.582
			c-0.181,0.475-4.484,11.685-10.103,16.19C99.522,345.616,99.423,345.649,99.322,345.649z"/>
		<path style="fill:#263238;" d="M92.683,369.295c-0.076,0-0.153-0.02-0.224-0.059c-4.336-2.479-9.932-13.334-10.168-13.795
			c-0.114-0.222-0.026-0.494,0.196-0.607c0.221-0.116,0.494-0.026,0.607,0.195c0.055,0.107,5.41,10.496,9.479,13.216
			c1.021-1.278,5.04-5.78,12.599-8.05c0.24-0.07,0.491,0.064,0.562,0.303c0.072,0.239-0.064,0.49-0.302,0.563
			c-8.385,2.517-12.342,7.99-12.381,8.045C92.964,369.228,92.825,369.295,92.683,369.295z"/>
		<path style="fill:#263238;" d="M91.876,394.028c0,0-3.606-5.74-7.68-6.557c-4.073-0.817-5.828-5.508-7.331-2.687
			C75.363,387.606,79.507,396.96,91.876,394.028z"/>
		<g>
			<polygon style="fill:#296198;" points="73.16,416.559 112.538,416.559 115.173,392.27 70.525,392.27 			"/>
			<polygon style="fill:#296198;" points="69.606,396.872 116.093,396.872 116.687,391.725 69.011,391.725 			"/>
			<polygon style="opacity:0.3;fill:#FFFFFF;" points="69.606,396.872 116.093,396.872 116.687,391.725 69.011,391.725 			"/>
		</g>
	</g>
</g>
<g id="Character">
	<g>
		<g>
			<polygon style="fill:#296198;" points="213.746,163.527 213.746,245.475 227.592,245.475 227.592,165.505 			"/>
			<polygon style="opacity:0.7;fill:#FFFFFF;" points="213.746,163.527 213.746,245.475 227.592,245.475 227.592,165.505 			"/>
			<path style="opacity:0.3;fill:#FFFFFF;" d="M214.24,203.355c0,0,0.692-2.67,1.187-2.868c0.494-0.198,1.187,7.853,2.275,8.377
				c1.088,0.524,2.176-5.707,2.967-5.707s0.89,5.044,1.978,4.846c1.088-0.198,1.879-9.692,2.769-9.791
				c0.89-0.099,1.484,3.165,1.484,3.165v2.176c0,0-0.791-2.67-1.385-2.967c-0.594-0.297-1.088,12.264-2.572,12.462
				s-1.934-6.033-2.549-5.934c-0.615,0.099-1.209,6.923-2.692,7.121c-1.484,0.198-1.978-9.593-2.572-9.593s-0.89,2.176-0.89,2.176
				V203.355z"/>
			<path style="opacity:0.3;fill:#FFFFFF;" d="M214.24,220.099c0,0,1.088,5.143,1.681,5.637c0.594,0.495,1.286-4.154,2.275-3.659
				c0.989,0.494,1.033,6.923,2.198,7.22c1.165,0.297,2.154-8.011,3.044-8.11c0.89-0.099,1.286,3.066,1.78,3.066
				c0.495,0,1.681-6.132,1.681-6.132v4.747c0,0-0.791,5.242-1.582,5.143c-0.791-0.099-1.583-2.473-1.978-2.473
				s-1.242,7.592-2.945,7.357c-1.703-0.236-2.099-7.709-2.692-7.384c-0.593,0.325-0.989,3.489-1.582,3.39
				c-0.594-0.099-1.879-3.39-1.879-3.39V220.099z"/>
			<path style="opacity:0.3;fill:#FFFFFF;" d="M214.24,179.073c0,0,1.088,5.143,1.681,5.637c0.594,0.494,1.286-4.154,2.275-3.659
				c0.989,0.494,1.033,6.923,2.198,7.22c1.165,0.297,2.154-8.011,3.044-8.11c0.89-0.099,1.286,3.066,1.78,3.066
				c0.495,0,1.681-6.132,1.681-6.132v4.747c0,0-0.791,5.242-1.582,5.143c-0.791-0.099-1.583-2.473-1.978-2.473
				s-1.242,7.592-2.945,7.357c-1.703-0.236-2.099-7.709-2.692-7.384c-0.593,0.324-0.989,3.489-1.582,3.391
				c-0.594-0.099-1.879-3.391-1.879-3.391V179.073z"/>
		</g>
		<g>
			<path style="fill:#263238;" d="M324.76,412.226h-20V168.371c0-20.427-16.619-37.045-37.045-37.045s-37.045,16.619-37.045,37.045
				v10.812h-20v-10.812c0-31.455,25.59-57.045,57.045-57.045s57.045,25.59,57.045,57.045V412.226z"/>
		</g>
		<g style="opacity:0.6;">
			<path style="fill:#FFFFFF;" d="M324.76,412.226h-20V168.371c0-20.427-16.619-37.045-37.045-37.045s-37.045,16.619-37.045,37.045
				v10.812h-20v-10.812c0-31.455,25.59-57.045,57.045-57.045s57.045,25.59,57.045,57.045V412.226z"/>
		</g>
		<g>
			<path style="fill:#263238;" d="M229.131,182.184h-16.925c-1.154,0-2.118-0.879-2.225-2.028l-0.813-8.784h23l-0.813,8.784
				C231.25,181.305,230.286,182.184,229.131,182.184z"/>
		</g>
		<g>
			<path style="fill:#263238;" d="M335.262,412.226h-41.004v-78.806c0-2.732,2.215-4.947,4.948-4.947h31.109
				c2.732,0,4.948,2.215,4.948,4.947V412.226z"/>
		</g>
		<g style="opacity:0.5;">
			<path style="fill:#FFFFFF;" d="M335.262,412.226h-41.004v-78.806c0-2.732,2.215-4.947,4.948-4.947h31.109
				c2.732,0,4.948,2.215,4.948,4.947V412.226z"/>
		</g>
		<g>
			<g>
				<path style="fill:#263238;" d="M336.662,357.275c-1.75,0-8.257,0-10.006,0c-8.794,0-15.923,8.457-15.923,18.89
					s7.129,18.89,15.923,18.89c1.75,0,8.257,0,10.006,0c8.794,0,15.923-8.457,15.923-18.89S345.456,357.275,336.662,357.275z"/>
				<path style="opacity:0.6;fill:#FFFFFF;" d="M336.662,357.275c-1.75,0-8.257,0-10.006,0c-8.794,0-15.923,8.457-15.923,18.89
					s7.129,18.89,15.923,18.89c1.75,0,8.257,0,10.006,0c8.794,0,15.923-8.457,15.923-18.89S345.456,357.275,336.662,357.275z"/>
				<ellipse style="opacity:0.2;fill:#FFFFFF;" cx="336.662" cy="376.165" rx="15.923" ry="18.89"/>
				<path style="opacity:0.2;" d="M336.662,392.555c-7.401,0-13.423-7.353-13.423-16.39c0-9.038,6.021-16.391,13.423-16.391
					c7.402,0,13.423,7.353,13.423,16.391C350.086,385.202,344.064,392.555,336.662,392.555z"/>
			</g>
			<g>
				<path style="fill:#263238;" d="M355.084,360.513v-42.679h-7.659h-4.133h-7.659v42.678c-6.261,1.868-10.875,8.179-10.875,15.699
					c0,8.989,6.583,16.276,14.704,16.276c2.098,0,9.693,0,11.791,0c8.121,0,14.704-7.287,14.704-16.276
					C365.959,368.691,361.345,362.38,355.084,360.513z"/>
				<path style="opacity:0.6;fill:#FFFFFF;" d="M355.084,360.513v-42.679h-7.659h-4.133h-7.659v42.678
					c-6.261,1.868-10.875,8.179-10.875,15.699c0,8.989,6.583,16.276,14.704,16.276c2.098,0,9.693,0,11.791,0
					c8.121,0,14.704-7.287,14.704-16.276C365.959,368.691,361.345,362.38,355.084,360.513z"/>
				<path style="opacity:0.3;fill:#FFFFFF;" d="M355.084,360.513v-42.679h-7.659v42.678c-6.261,1.868-10.875,8.179-10.875,15.699
					c0,8.989,6.583,16.276,14.704,16.276c8.121,0,14.704-7.287,14.704-16.276C365.959,368.691,361.345,362.38,355.084,360.513z"/>
			</g>
		</g>
		<g style="opacity:0.5;">
			<path style="fill:#FFFFFF;" d="M229.131,182.184h-16.925c-1.154,0-2.118-0.879-2.225-2.028l-0.813-8.784h23l-0.813,8.784
				C231.25,181.305,230.286,182.184,229.131,182.184z"/>
		</g>
		<path style="fill:#296198;" d="M211.058,241.717c0.953-0.378,2.077,2.019,4.154,2.316c2.077,0.297,1.879-4.451,3.857-4.451
			s1.187,4.181,3.165,4.464c1.978,0.283,2.868-3.673,3.659-2.98c0.791,0.692-1.187,2.43,0.494,2.995
			c1.681,0.566,1.904-1.412,3.078-1.314c1.174,0.099-0.152,5.538-2.566,4.648c0,0-4.963,3.165-10.798,0.495
			c0,0-1.861,0.692-3.65-1.582C210.662,244.033,209.664,242.27,211.058,241.717z"/>
		<path style="opacity:0.6;fill:#FFFFFF;" d="M211.058,241.717c0.953-0.378,2.077,2.019,4.154,2.316
			c2.077,0.297,1.879-4.451,3.857-4.451s1.187,4.181,3.165,4.464c1.978,0.283,2.868-3.673,3.659-2.98
			c0.791,0.692-1.187,2.43,0.494,2.995c1.681,0.566,1.904-1.412,3.078-1.314c1.174,0.099-0.152,5.538-2.566,4.648
			c0,0-4.963,3.165-10.798,0.495c0,0-1.861,0.692-3.65-1.582C210.662,244.033,209.664,242.27,211.058,241.717z"/>
		<path style="fill:#263238;" d="M344.681,405.887h-59.841c-2.095,0-4.096,0.867-5.529,2.395l-7.76,8.277h86.421l-7.76-8.277
			C348.777,406.754,346.775,405.887,344.681,405.887z"/>
		<path style="opacity:0.6;fill:#FFFFFF;" d="M344.681,405.887h-59.841c-2.095,0-4.096,0.867-5.529,2.395l-7.76,8.277h86.421
			l-7.76-8.277C348.777,406.754,346.775,405.887,344.681,405.887z"/>
	</g>
	<g>
		<path style="fill:#263238;" d="M140.676,195.337c-5.311,7.991-4.702,11.906-3.007,27.671s-3.928,22.385-1.204,29.638
			c2.724,7.253,22.251,6.647,30.949-7.885c8.698-14.532-2.256-45.758-10.559-48.804C148.551,192.91,140.676,195.337,140.676,195.337
			z"/>
		<path style="fill:#E9B376;" d="M175.198,231.126c5.132,2.288,10.66,3.733,16.151,4.968c5.035,0.22,9.92-1.621,14.961-2.939
			c3.736-1.11,7.517-2.309,11.24-3.523c1.139-0.372,2.365,0.251,2.737,1.39c0.327,1.001-0.115,2.068-0.999,2.565
			c-3.539,1.992-7.117,3.78-10.829,5.416c-5.741,2.333-11.678,5.154-18.086,4.896c-6.666-0.753-13.425-2.019-19.452-5.162
			C165.98,235.735,170.055,228.514,175.198,231.126L175.198,231.126z"/>
		<path style="fill:#296198;" d="M185.08,232.9c-0.22,1.81-2.56,4.69-4.98,7.23c-2.77,2.89-5.65,5.35-5.65,5.35
			s-1.64-1.55-3.58-3.88c-3.13-3.76-7.06-9.54-6.08-14C170.33,225.44,175.66,228.24,185.08,232.9z"/>
		<path style="opacity:0.1;" d="M180.1,240.13c-2.77,2.89-5.65,5.35-5.65,5.35s-1.64-1.55-3.58-3.88c-0.36-4.59,3.25-7.58,3.25-7.58
			S178.19,235.87,180.1,240.13z"/>
		<path style="fill:#296198;" d="M206.785,416.555c-5.337,0-6.042-0.082-9.041-0.183c-2.568-0.092-3.182,0.229-5.246,0.183
			c-1.724-0.037-1.66-1.687-1.128-3.586c0.266-0.953,0.676-2.969,1.043-4.51l7.819-0.568c1.1,2.1,3.583,5.096,6.591,5.5
			C209.694,413.776,208.913,416.555,206.785,416.555z"/>
		<g>
			<path style="fill:#263238;" d="M200.264,408.45c-1.07,0.98-5.6,1.46-8.17,1.24c0,0-24.78-43.55-18.92-67.48
				c-1.86-5.06-3.46-9.82-4.82-14.29c-2.29-7.51-3.92-14.2-5.07-20.11c-4.79-24.57-1.15-35.58-1.15-35.58l18.73-2.96
				c0,0,1.18,4.5,2.09,10.28c3.46,22.1,3.57,41.65,4.58,57.24C188.984,359.32,196.274,394.39,200.264,408.45z"/>
		</g>
		<path style="opacity:0.3;" d="M168.354,327.92c-2.29-7.51-3.92-14.2-5.07-20.11c1.58-4.24,3.71-8.06,6.38-10.66
			C169.664,297.15,171.084,316.25,168.354,327.92z"/>
		<path style="fill:#296198;" d="M167.761,416.555c-5.337,0-6.042-0.082-9.041-0.183c-2.568-0.092-3.182,0.229-5.246,0.183
			c-1.724-0.037-1.66-1.687-1.128-3.586c0.266-0.953,0.676-2.969,1.043-4.51l7.819-0.568c1.1,2.1,3.583,5.096,6.591,5.5
			C170.669,413.776,169.889,416.555,167.761,416.555z"/>
		<g>
			<path style="fill:#263238;" d="M173.427,270.445c0,0-5.706,44.159-8.977,65.411c-3.435,22.319-3.871,58.131-3.012,72.726
				c-1.25,0.726-5.781,0.221-8.243-0.549c0,0-14.814-47.873-3.935-69.972c-7.039-51.641,3.148-64.287,3.148-64.287L173.427,270.445z
				"/>
		</g>
		<path style="fill:#296198;" d="M141.363,239.451c7.97,17.23,10.35,26.21,11.05,34.32l28.45-4.5c-0.65-9.4-1.14-15.02-1.82-20.71
			c-0.67-6.74-1.35-8.82-1.88-11.6c-0.77-4.05-3.97-8.23-7.9-9.61c-0.91-0.33-1.86-0.5-2.83-0.48c-1.42,0.03-2.9,0.08-4.33,0.18
			c-4.3,0.29-8.18,1.06-12.92,2.04c-1.22,0.26-2.4,0.54-3.51,0.84c-0.24,0.06-0.48,0.14-0.7,0.23
			C141.303,231.531,139.633,235.691,141.363,239.451z"/>
		<path style="fill:#EBB376;" d="M147.786,214.403c1.783,3.979,4.37,11.378,2.107,14.58c0,0,3.844-1.215,13.024,2.632
			c1.871-3.856-0.102-4.677-0.102-4.677c-4.894-0.36-5.575-3.778-5.52-7.098L147.786,214.403z"/>
		<path style="opacity:0.2;" d="M151.664,216.621l5.627,3.215c-0.016,0.786,0.014,1.576,0.136,2.329
			c-1.831,0.027-4.716-1.509-5.336-3.311C151.781,217.956,151.613,217.071,151.664,216.621z"/>
		<g>
			<path style="fill:#EBB376;" d="M142.915,206.62c2.324,6.513,3.169,9.312,7.509,11.925c6.529,3.931,14.04,0.116,13.713-6.848
				c-0.294-6.268-4.046-15.867-11.314-16.988C145.662,193.604,140.591,200.107,142.915,206.62z"/>
			<path style="fill:#263238;" d="M150.572,191.613c5.056,0,12.458,4.655,6.028,6.035c0.064,2.069-3.716,2.242-6.51,1.264
				c0.454,1.5-1.972,4.606-5.458,3.826c2.032,1.001,2.394,6.174,0,6.577c-2.394,0.402-7.394,1.963-6.934-6.577
				C138.158,194.2,145.17,191.613,150.572,191.613z"/>
			<path style="fill:#263238;" d="M151.666,206.381c0.171,0.555,0.602,0.937,0.961,0.852c0.359-0.084,0.512-0.603,0.34-1.158
				s-0.602-0.937-0.961-0.852C151.647,205.308,151.494,205.826,151.666,206.381z"/>
			<path style="fill:#263238;" d="M158.615,204.523c0.171,0.555,0.602,0.937,0.961,0.852c0.359-0.084,0.512-0.603,0.34-1.158
				c-0.171-0.555-0.602-0.937-0.961-0.852C158.596,203.45,158.443,203.968,158.615,204.523z"/>
			<path style="fill:#263238;" d="M158.806,203.433l1.202-0.694C160.008,202.739,159.652,203.939,158.806,203.433z"/>
			<path style="fill:#D58745;" d="M156.855,206.245c0,0,1.671,2.171,3.054,3.083c-0.515,0.854-1.846,0.832-1.846,0.832
				L156.855,206.245z"/>
			<path style="fill:#263238;" d="M155.535,212.952c0.301-0.016,0.617-0.059,0.947-0.136c0.089-0.021,0.139-0.111,0.111-0.201
				c-0.028-0.09-0.12-0.146-0.212-0.125c-2.411,0.568-4.066-0.87-4.082-0.885c-0.072-0.064-0.179-0.062-0.238,0.005
				c-0.06,0.067-0.05,0.173,0.022,0.237C152.146,211.903,153.478,213.062,155.535,212.952z"/>
			<path style="fill:#EBB376;" d="M142.293,212.575c1.139,1.166,2.64,1.696,3.89,1.689c1.879-0.011,2.181-1.947,1.124-3.561
				c-0.951-1.453-3.076-3.198-4.705-2.41C140.997,209.07,140.991,211.242,142.293,212.575z"/>
			<path style="fill:#263238;" d="M149.558,203.145c0.087-0.012,0.167-0.059,0.218-0.137c0.783-1.215,2.026-1.179,2.04-1.178
				c0.184,0.006,0.333-0.136,0.327-0.321c-0.006-0.185-0.162-0.34-0.349-0.348c-0.065-0.002-1.625-0.05-2.597,1.459
				c-0.097,0.15-0.046,0.359,0.114,0.467C149.388,203.138,149.476,203.157,149.558,203.145z"/>
			<path style="fill:#263238;" d="M160.356,200.195c0.084-0.001,0.165-0.033,0.225-0.095c0.123-0.13,0.11-0.341-0.03-0.473
				c-1.404-1.322-2.913-1.037-2.978-1.024c-0.18,0.036-0.286,0.212-0.235,0.394c0.05,0.181,0.236,0.298,0.416,0.263
				c0.059-0.012,1.234-0.216,2.35,0.835C160.175,200.163,160.267,200.197,160.356,200.195z"/>
			<path style="fill:#263238;" d="M151.857,205.291l1.202-0.694C153.059,204.597,152.703,205.798,151.857,205.291z"/>
		</g>
		<g>
			<path style="fill:#EBB376;" d="M144.972,230.161c1.71,0.88,4.27,2.12,7.06,3.19h0.01c0.62,0.23,1.25,0.46,1.89,0.67
				c3.66,1.23,7.49,1.99,10.22,1.19c2.49-0.74,3.82-2.13,4.5-3.62c0.19-0.4,0.32-0.81,0.42-1.22c0.27-1.11,0.27-2.19,0.19-3.02
				c-0.91-0.33-1.86-0.5-2.83-0.48c-0.32,0.01-0.63,0.01-0.95,0.03c-0.42,0-0.83,0.02-1.25,0.03c-0.71,0.03-1.43,0.07-2.13,0.12
				c-4.3,0.29-8.18,1.06-12.92,2.04c-0.09,0.02-0.19,0.04-0.28,0.06c-0.32,0.07-0.64,0.14-0.95,0.21c-0.78,0.18-1.55,0.37-2.28,0.57
				C145.432,229.991,145.193,230.071,144.972,230.161z"/>
			<path style="fill:#263238;" d="M147.952,229.361c1.64,1.24,3.03,2.69,4.08,3.99h0.01c0.62,0.23,1.25,0.46,1.89,0.67
				c-1.92-2.62-3.89-4.13-5.03-4.87C148.583,229.221,148.262,229.291,147.952,229.361z"/>
			<path style="fill:#263238;" d="M164.233,226.931c1.87,1.5,3.37,3.25,4.42,4.66c0.19-0.4,0.32-0.81,0.42-1.22
				c-1.32-1.63-2.61-2.75-3.59-3.47C165.063,226.901,164.653,226.921,164.233,226.931z"/>
			<path style="opacity:0.2;fill:#FFFFFF;" d="M147.952,229.361c1.64,1.24,3.03,2.69,4.08,3.99h0.01c0.62,0.23,1.25,0.46,1.89,0.67
				c-1.92-2.62-3.89-4.13-5.03-4.87C148.583,229.221,148.262,229.291,147.952,229.361z"/>
			<path style="opacity:0.2;fill:#FFFFFF;" d="M164.233,226.931c1.87,1.5,3.37,3.25,4.42,4.66c0.19-0.4,0.32-0.81,0.42-1.22
				c-1.32-1.63-2.61-2.75-3.59-3.47C165.063,226.901,164.653,226.921,164.233,226.931z"/>
		</g>
		<path style="fill:#EBB376;" d="M227.295,226.029L227,227.884c-0.111,0.698-0.552,1.299-1.184,1.613l-2.955,1.471
			c-1.182,0.588-2.575,0.568-3.738-0.055l-0.72-0.385c0.279-3.11,2.871-6.266,2.871-6.266l0.639-0.982
			c0.57-0.874,1.665-1.132,2.517-0.593l1.961,1.241C227.068,224.357,227.428,225.193,227.295,226.029z"/>
		<g>
			<path style="fill:#296198;" d="M262.732,321.102l-73.414-3.62c-1.252-0.062-2.234-1.098-2.227-2.352l0.547-104.92
				c0.007-1.334,1.125-2.393,2.458-2.328l82.643,4.075c1.333,0.066,2.341,1.23,2.217,2.558L265.18,318.98
				C265.063,320.228,263.984,321.163,262.732,321.102z"/>
			<path style="opacity:0.5;fill:#FFFFFF;" d="M262.732,321.102l-73.414-3.62c-1.252-0.062-2.234-1.098-2.227-2.352l0.547-104.92
				c0.007-1.334,1.125-2.393,2.458-2.328l82.643,4.075c1.333,0.066,2.341,1.23,2.217,2.558L265.18,318.98
				C265.063,320.228,263.984,321.163,262.732,321.102z"/>
			<path style="opacity:0.2;fill:#FFFFFF;" d="M270.341,247.754l-6.65,71.09c-0.05,0.43-0.41,0.76-0.84,0.76l-73.46-3.62
				c-0.45-0.02-0.8-0.39-0.8-0.85l0.32-61.08c4.05-9.72,16.71-10.11,27.39-3.78c5.33,3.16,10.9,7.24,16.79,10.27
				c5.92,3.04,12.17,5.03,18.81,3.95C265.161,262.334,268.021,256.454,270.341,247.754z"/>
			<g>
				<polygon style="fill:#296198;" points="227.591,211.234 227.591,267.484 213.741,267.484 213.741,210.554 218.821,210.804
					222.181,210.964 				"/>
				<polygon style="opacity:0.7;fill:#FFFFFF;" points="227.591,211.234 227.591,267.484 213.741,267.484 213.741,210.554
					218.821,210.804 222.181,210.964 				"/>
				<path style="opacity:0.3;fill:#FFFFFF;" d="M214.24,225.369c0,0,0.692-2.67,1.187-2.868c0.494-0.198,1.187,7.853,2.275,8.377
					c1.088,0.524,2.176-5.707,2.967-5.707s0.89,5.044,1.978,4.846c1.088-0.198,1.879-9.692,2.769-9.791
					c0.89-0.099,1.484,3.165,1.484,3.165v2.176c0,0-0.791-2.67-1.385-2.967c-0.594-0.297-1.088,12.264-2.572,12.462
					s-1.934-6.033-2.549-5.934c-0.615,0.099-1.209,6.923-2.692,7.121c-1.484,0.198-1.978-9.593-2.572-9.593s-0.89,2.176-0.89,2.176
					V225.369z"/>
				<path style="opacity:0.3;fill:#FFFFFF;" d="M214.24,242.113c0,0,1.088,5.143,1.681,5.637c0.594,0.494,1.286-4.154,2.275-3.659
					c0.989,0.494,1.033,6.923,2.198,7.22c1.165,0.297,2.154-8.011,3.044-8.11c0.89-0.099,1.286,3.066,1.78,3.066
					c0.495,0,1.681-6.132,1.681-6.132v4.747c0,0-0.791,5.242-1.582,5.143c-0.791-0.099-1.583-2.472-1.978-2.472
					s-1.242,7.592-2.945,7.357c-1.703-0.236-2.099-7.709-2.692-7.384c-0.593,0.324-0.989,3.489-1.582,3.39
					c-0.594-0.099-1.879-3.39-1.879-3.39V242.113z"/>
			</g>
			<g>
				<path style="fill:#296198;" d="M206.014,262.83c0,0,3.363-2.077-0.593-10.385c-1.923-4.038,1.324-4.154,2.195-2.275
					c0.871,1.879,0.746,8.604,2.786,8.604c2.04,0,1.176-5.934,3.339-6.528s2.262,5.143,5.625,6.132
					c3.363,0.989,7.64-8.604,10.1-7.517c2.46,1.088-2.186,5.538,0.434,6.725c2.62,1.187,6.971-8.406,8.554-7.912
					c1.582,0.494-5.044,6.725-5.143,9c-0.099,2.275,2.769,3.363,2.769,3.363S218.574,273.611,206.014,262.83z"/>
				<path style="opacity:0.8;fill:#FFFFFF;" d="M206.014,262.83c0,0,3.363-2.077-0.593-10.385c-1.923-4.038,1.324-4.154,2.195-2.275
					c0.871,1.879,0.746,8.604,2.786,8.604c2.04,0,1.176-5.934,3.339-6.528s2.262,5.143,5.625,6.132
					c3.363,0.989,7.64-8.604,10.1-7.517c2.46,1.088-2.186,5.538,0.434,6.725c2.62,1.187,6.971-8.406,8.554-7.912
					c1.582,0.494-5.044,6.725-5.143,9c-0.099,2.275,2.769,3.363,2.769,3.363S218.574,273.611,206.014,262.83z"/>
			</g>
			<path style="fill:#296198;" d="M270.341,247.754l-6.65,71.09c-0.05,0.43-0.41,0.76-0.84,0.76l-73.46-3.62
				c-0.45-0.02-0.8-0.39-0.8-0.85l0.32-61.08c0,0,2.466-2.202,5.729-1.213c7.391,2.24,11.021,11.693,25.341,11.653
				c4.02-0.01,8.53-1.65,13.11-3.95c11.74-5.9,23.936-15.006,30.22-15.12C267.715,245.344,270.341,246.043,270.341,247.754z"/>
			<path style="opacity:0.7;fill:#FFFFFF;" d="M270.341,247.754l-6.65,71.09c-0.05,0.43-0.41,0.76-0.84,0.76l-73.46-3.62
				c-0.45-0.02-0.8-0.39-0.8-0.85l0.32-61.08c0,0,2.466-2.202,5.729-1.213c7.391,2.24,11.021,11.693,25.341,11.653
				c4.02-0.01,8.53-1.65,13.11-3.95c11.74-5.9,23.936-15.006,30.22-15.12C267.715,245.344,270.341,246.043,270.341,247.754z"/>
			<circle style="opacity:0.2;fill:#FFFFFF;" cx="234.992" cy="272.918" r="1.879"/>
			<circle style="opacity:0.2;fill:#FFFFFF;" cx="204.822" cy="309.601" r="1.879"/>
			<path style="opacity:0.2;fill:#FFFFFF;" d="M209.567,276.581c0,1.855-1.504,3.359-3.359,3.359c-1.855,0-3.359-1.504-3.359-3.359
				s1.504-3.359,3.359-3.359C208.063,273.223,209.567,274.726,209.567,276.581z"/>
			<path style="opacity:0.2;fill:#FFFFFF;" d="M221.76,305.195c0,1.855-1.504,3.359-3.359,3.359c-1.855,0-3.359-1.504-3.359-3.359
				s1.504-3.359,3.359-3.359C220.256,301.836,221.76,303.34,221.76,305.195z"/>
			<path style="opacity:0.2;fill:#FFFFFF;" d="M226.091,298.385c0,0.683-0.553,1.236-1.236,1.236c-0.683,0-1.236-0.553-1.236-1.236
				c0-0.683,0.553-1.236,1.236-1.236C225.538,297.149,226.091,297.703,226.091,298.385z"/>
			<path style="opacity:0.2;fill:#FFFFFF;" d="M221.217,312.784c0,0.683-0.554,1.236-1.236,1.236s-1.236-0.553-1.236-1.236
				c0-0.683,0.553-1.236,1.236-1.236S221.217,312.101,221.217,312.784z"/>
			<path style="opacity:0.2;fill:#FFFFFF;" d="M255.154,260.429c0,1.225-0.993,2.218-2.218,2.218c-1.225,0-2.218-0.993-2.218-2.218
				s0.993-2.218,2.218-2.218C254.161,258.211,255.154,259.204,255.154,260.429z"/>
			<circle style="opacity:0.2;fill:#FFFFFF;" cx="218.401" cy="279.94" r="2.218"/>
			<path style="opacity:0.2;fill:#FFFFFF;" d="M214.098,298.385c0,1.225-0.993,2.218-2.218,2.218c-1.225,0-2.218-0.993-2.218-2.218
				c0-1.225,0.993-2.218,2.218-2.218C213.105,296.167,214.098,297.16,214.098,298.385z"/>
			<circle style="opacity:0.2;fill:#FFFFFF;" cx="223.248" cy="282.615" r="1.488"/>
			<circle style="opacity:0.2;fill:#FFFFFF;" cx="195.125" cy="276.581" r="1.488"/>
			<path style="opacity:0.2;fill:#FFFFFF;" d="M221.76,289.536c0,2.728-2.212,4.94-4.94,4.94c-2.728,0-4.94-2.212-4.94-4.94
				c0-2.728,2.212-4.94,4.94-4.94C219.548,284.596,221.76,286.808,221.76,289.536z"/>
			<circle style="opacity:0.2;fill:#FFFFFF;" cx="230.247" cy="309.601" r="0.781"/>
			<circle style="opacity:0.2;fill:#FFFFFF;" cx="194.344" cy="261.21" r="0.781"/>
			<circle style="opacity:0.2;fill:#FFFFFF;" cx="220.151" cy="273.223" r="0.781"/>
			<circle style="opacity:0.2;fill:#FFFFFF;" cx="202.849" cy="289.536" r="0.781"/>
			<path style="opacity:0.2;fill:#FFFFFF;" d="M233.113,293.043c0,0.791-0.642,1.433-1.433,1.433c-0.791,0-1.433-0.641-1.433-1.433
				s0.641-1.433,1.433-1.433C232.471,291.611,233.113,292.252,233.113,293.043z"/>
			<path style="opacity:0.2;fill:#FFFFFF;" d="M205.064,267.484c0,0.791-0.642,1.433-1.433,1.433c-0.791,0-1.433-0.641-1.433-1.433
				c0-0.791,0.641-1.433,1.433-1.433C204.422,266.052,205.064,266.693,205.064,267.484z"/>
			<circle style="opacity:0.2;fill:#FFFFFF;" cx="208.185" cy="291.215" r="0.396"/>
			<path style="opacity:0.2;fill:#FFFFFF;" d="M267.71,214.122l-9.77,104.47c-0.05,0.43-0.41,0.76-0.84,0.76l-9.39-0.46
				c0.05-0.1,0.08-0.2,0.09-0.31l9.9-105.83l9.21,0.45c0.32,0.02,0.51,0.19,0.6,0.29C267.6,213.592,267.74,213.811,267.71,214.122z"
				/>
		</g>
		<path style="opacity:0.1;" d="M161.212,252.257c0,0-14.981,5.292-19.135-13.763l6.53-0.422L161.212,252.257z"/>
		<g>
			<path style="fill:#EBB376;" d="M202.685,247.267l-1.886-1.032c-0.709-0.388-1.562-0.41-2.29-0.058l-3.401,1.645
				c-1.36,0.658-2.317,1.933-2.568,3.422l-0.156,0.922c3.01,1.926,7.682,1.79,7.682,1.79l1.336,0.109
				c1.19,0.096,2.191-0.714,2.3-1.863l0.25-2.645C204.039,248.643,203.535,247.732,202.685,247.267z"/>
			<path style="fill:#E9B376;" d="M149.853,233.37c4.544,4.219,9.484,8.53,14.744,11.824c2.565,1.525,4.685,2.761,7.487,3.044
				c3.08,0.333,6.236,0.288,9.413,0.215c4.346-0.127,8.791-0.367,13.19-0.605c1.199-0.065,2.224,0.854,2.289,2.053
				c0.055,1.025-0.609,1.922-1.552,2.202c-4.379,1.301-8.767,2.303-13.292,3.04c-4.145,0.614-8.332,1.182-12.609,0.725
				c-8.11-1.457-14.511-6.597-20.665-11.564c-1.766-1.523-3.444-3.008-5.151-4.733C139.799,235.421,145.666,229.495,149.853,233.37
				L149.853,233.37z"/>
			<path style="fill:#296198;" d="M143.476,230.942c-4.856,3.433-1.341,13.33,7.466,19.378c5.912-0.614,11.194-9.839,11.194-9.839
				S152.32,232.068,143.476,230.942z"/>
		</g>
	</g>
</g>
</svg>
